<?xml version="1.0" encoding="UTF-8"?>
<svg version="1.1" xmlns="http://www.w3.org/2000/svg" width="303" height="304">
<path d="M0 0 C18.53370581 17.18634432 31.59946296 37.39779338 40.6875 60.9375 C40.95731689 61.61417725 41.22713379 62.29085449 41.50512695 62.98803711 C46.96035792 77.81960401 48.60971425 93.34869327 48.45898438 109.04199219 C48.43749773 111.68778005 48.45896369 114.33085446 48.484375 116.9765625 C48.52514017 141.82896188 41.60015722 163.95308555 29.9375 185.6875 C29.40640625 186.71230469 28.8753125 187.73710937 28.328125 188.79296875 C9.80689882 222.76383161 -23.90944417 246.17258844 -60.25 257.375 C-98.26324674 268.3471823 -140.48633321 263.58890086 -175.16748047 244.53076172 C-212.19208667 223.31793237 -237.53067337 189.69224776 -249.0625 148.6875 C-258.59871641 111.32854176 -252.94325404 69.74372264 -233.609375 36.36328125 C-226.64245515 24.75085308 -218.26761535 14.59940665 -209.0625 4.6875 C-208.51207031 4.08292969 -207.96164063 3.47835937 -207.39453125 2.85546875 C-187.78579938 -17.8184288 -160.00677325 -30.37525374 -132.625 -36.625 C-131.92842285 -36.78452148 -131.2318457 -36.94404297 -130.51416016 -37.10839844 C-83.4000343 -47.16385145 -35.53667838 -30.95312592 0 0 Z " fill="#4C86E5" transform="translate(255.0625,39.3125)"/>
<path d="M0 0 C3.5625 1.625 3.5625 1.625 6 4 C7.36125 5.2065625 7.36125 5.2065625 8.75 6.4375 C12.45072738 11.06340923 12.34723548 17.33088201 13 23 C13.19980469 23.86882812 13.39960938 24.73765625 13.60546875 25.6328125 C14.23773863 29.42643178 13.05544686 32.33697855 12 36 C11.01 36 10.02 36 9 36 C8.9190277 38.43816585 8.85953028 40.87364384 8.8125 43.3125 C8.78736328 44.00279297 8.76222656 44.69308594 8.73632812 45.40429688 C8.61302112 49.44142301 8.61302112 49.44142301 10.51171875 52.85546875 C11.00285156 53.23316406 11.49398437 53.61085937 12 54 C12 54.66 12 55.32 12 56 C12.71172363 56.12979248 13.42344727 56.25958496 14.15673828 56.39331055 C19.1814548 57.46547443 24.00300425 59.19729563 28.875 60.8125 C29.93847656 61.15603516 31.00195312 61.49957031 32.09765625 61.85351562 C43.72540359 65.70294999 43.72540359 65.70294999 48 69 C49.14722784 71.80935322 49.7986512 73.89889662 50.3125 76.8125 C50.59922433 78.19422582 50.88697739 79.57573859 51.17578125 80.95703125 C51.28833252 81.56522705 51.40088379 82.17342285 51.5168457 82.80004883 C52.01063075 85.19367294 52.01063075 85.19367294 53.00048828 88.24243164 C54.05926577 92.22280396 54.51758481 96.07506359 54.81640625 100.1640625 C54.87779282 100.91916107 54.93917938 101.67425964 55.00242615 102.45223999 C55.19580108 104.84268358 55.37972582 107.23372455 55.5625 109.625 C55.7503016 112.02326745 55.94017014 114.42133784 56.13328552 116.81918335 C56.25247794 118.30477319 56.3684219 119.79062842 56.48060608 121.27676392 C56.76864617 124.92360994 57.26440535 128.42060348 58 132 C58 134.33333333 58 136.66666667 58 139 C58.17015625 139.73605469 58.3403125 140.47210938 58.515625 141.23046875 C59.14005254 144.80078428 58.97219856 148.21648662 58.75 151.8125 C58.70335205 152.58513184 58.6567041 153.35776367 58.60864258 154.15380859 C55.98752661 193.06877129 55.98752661 193.06877129 48 208 C47.34 208 46.68 208 46 208 C46 211.96 46 215.92 46 220 C20.66631722 232.4446161 -13.63902311 234.2393357 -40.5546875 225.8984375 C-41.76511719 225.45371094 -41.76511719 225.45371094 -43 225 C-43 222.36 -43 219.72 -43 217 C-43.66 217 -44.32 217 -45 217 C-45 219.31 -45 221.62 -45 224 C-47.375 223.6875 -47.375 223.6875 -50 223 C-50.66 222.01 -51.32 221.02 -52 220 C-52.515625 220.226875 -53.03125 220.45375 -53.5625 220.6875 C-57.28807032 221.16513722 -59.64516304 219.61290239 -63 218 C-65.2837024 196.08176787 -63.59094521 174.54681681 -61.37158203 152.71972656 C-60.97136609 148.71335988 -60.61771519 144.7048595 -60.27685547 140.69311523 C-59.23600962 128.5265993 -57.86004801 116.39608568 -56.49633789 104.26245117 C-56.41460831 103.533582 -56.33287872 102.80471283 -56.24867249 102.05375671 C-56.0833451 100.59484427 -55.91501586 99.13626878 -55.74363708 97.67805481 C-55.29279454 93.8084599 -54.90599347 89.944924 -54.60546875 86.06054688 C-54.53521484 85.24797424 -54.46496094 84.43540161 -54.39257812 83.59820557 C-54.25964978 82.04575289 -54.14397508 80.49168789 -54.04882812 78.9364624 C-53.69490091 75.02907471 -53.10961598 73.13239965 -50.58032227 70.07739258 C-43.31963879 64.23188632 -33.76534081 61.77629744 -25 59 C-21.20602794 58.02961254 -21.20602794 58.02961254 -18 56 C-17.65705334 49.6050535 -17.85455928 43.29992398 -19 37 C-20.32 36.67 -21.64 36.34 -23 36 C-23.66 32.04 -24.32 28.08 -25 24 C-24.34 24 -23.68 24 -23 24 C-23.495 22.515 -23.495 22.515 -24 21 C-24.50179253 15.75996977 -24.649025 11.37293749 -22.375 6.5625 C-15.68492064 -0.65574352 -9.5724237 -1.11545484 0 0 Z " fill="#0C2A50" transform="translate(158,56)"/>
<path d="M0 0 C0.99 0.66 1.98 1.32 3 2 C3 2.66 3 3.32 3 4 C3.71172363 4.12979248 4.42344727 4.25958496 5.15673828 4.39331055 C10.1814548 5.46547443 15.00300425 7.19729563 19.875 8.8125 C20.93847656 9.15603516 22.00195312 9.49957031 23.09765625 9.85351562 C34.72540359 13.70294999 34.72540359 13.70294999 39 17 C40.14722784 19.80935322 40.7986512 21.89889662 41.3125 24.8125 C41.59922433 26.19422582 41.88697739 27.57573859 42.17578125 28.95703125 C42.28833252 29.56522705 42.40088379 30.17342285 42.5168457 30.80004883 C43.01063075 33.19367294 43.01063075 33.19367294 44.00048828 36.24243164 C45.05926577 40.22280396 45.51758481 44.07506359 45.81640625 48.1640625 C45.87779282 48.91916107 45.93917938 49.67425964 46.00242615 50.45223999 C46.19580108 52.84268358 46.37972582 55.23372455 46.5625 57.625 C46.7503016 60.02326745 46.94017014 62.42133784 47.13328552 64.81918335 C47.25247794 66.30477319 47.3684219 67.79062842 47.48060608 69.27676392 C47.76864617 72.92360994 48.26440535 76.42060348 49 80 C49 82.33333333 49 84.66666667 49 87 C49.17015625 87.73605469 49.3403125 88.47210938 49.515625 89.23046875 C50.14005254 92.80078428 49.97219856 96.21648662 49.75 99.8125 C49.68002808 100.97144775 49.68002808 100.97144775 49.60864258 102.15380859 C46.98752661 141.06877129 46.98752661 141.06877129 39 156 C38.34 156 37.68 156 37 156 C37 159.96 37 163.92 37 168 C11.66631722 180.4446161 -22.63902311 182.2393357 -49.5546875 173.8984375 C-50.76511719 173.45371094 -50.76511719 173.45371094 -52 173 C-52 170.36 -52 167.72 -52 165 C-52.66 165 -53.32 165 -54 165 C-55.71339886 162.03259792 -56.22887717 160.04144691 -56.046875 156.62890625 C-56.00433594 155.80712891 -55.96179688 154.98535156 -55.91796875 154.13867188 C-55.86253906 153.28853516 -55.80710937 152.43839844 -55.75 151.5625 C-55.71003906 150.71623047 -55.67007813 149.86996094 -55.62890625 148.99804688 C-55.37559637 144.62673992 -54.99519382 140.98221061 -53 137 C-50.86104829 140.43701783 -50.90780689 142.71635854 -51.375 146.6875 C-51.9122855 151.8391198 -52.08627615 156.82343081 -52 162 C-50.515 161.01 -50.515 161.01 -49 160 C-46.36328125 160.20703125 -46.36328125 160.20703125 -43.3125 160.8125 C-26.06088851 164.14646902 -9.10510867 164.06458028 8 160 C7.52949219 158.96101562 7.05898437 157.92203125 6.57421875 156.8515625 C1.79975151 146.20751977 -1.73152042 136.25246512 -3.72875977 124.70458984 C-4.42733876 120.74673009 -5.2647457 116.87639245 -6.30078125 112.9921875 C-14.28937382 82.55061651 -8.89599113 50.62935978 -4.41918945 19.97265625 C-4.06676105 17.47343186 -3.75869159 14.97656411 -3.4765625 12.46875 C-3.06101476 9.44410743 -2.46581572 6.86140028 -1.4375 4 C-1.16808594 3.236875 -0.89867187 2.47375 -0.62109375 1.6875 C-0.41613281 1.130625 -0.21117187 0.57375 0 0 Z " fill="#092144" transform="translate(167,108)"/>
<path d="M0 0 C-0.41361213 7.68748066 -1.28532882 15.2073157 -2.4375 22.8125 C-4.16516234 34.5106984 -5.32211976 46.19451184 -6 58 C-6.06413086 59.0219043 -6.12826172 60.04380859 -6.19433594 61.09667969 C-7.17333204 78.73520265 -4.25861712 94.42181855 0.10839844 111.38916016 C1.01217603 115.04931094 1.78439139 118.71976806 2.53515625 122.4140625 C3.6291088 127.61938937 5.02676944 132.24318718 7.125 137.125 C10.29642857 144.55078397 10.29642857 144.55078397 11 148 C9.45983306 148.4839655 7.91777806 148.96192387 6.375 149.4375 C5.51648438 149.70433594 4.65796875 149.97117187 3.7734375 150.24609375 C-11.02548207 154.26889865 -27.27621447 152.49872131 -42 149 C-42.09421668 144.49016136 -41.56713324 141.24047818 -40 137 C-39.07379053 133.70681077 -38.53722844 130.37686448 -38 127 C-37.34 127 -36.68 127 -36 127 C-35.93941406 126.30132812 -35.87882813 125.60265625 -35.81640625 124.8828125 C-35.73261719 123.97273438 -35.64882812 123.06265625 -35.5625 122.125 C-35.48128906 121.22007812 -35.40007812 120.31515625 -35.31640625 119.3828125 C-35 117 -35 117 -34 115 C-33.34 115 -32.68 115 -32 115 C-32.474375 113.96875 -32.94875 112.9375 -33.4375 111.875 C-34.83738488 108.60417893 -35.66823417 105.56648272 -36 102 C-35.505 101.01 -35.505 101.01 -35 100 C-33.68 100 -32.36 100 -31 100 C-26.72618161 79.38353014 -26.85061853 58.16590557 -27.0625 37.1875 C-27.12682192 30.47398779 -26.77525282 23.87048403 -26.125 17.1875 C-26.00717163 15.95906372 -26.00717163 15.95906372 -25.88696289 14.70581055 C-25.37130265 9.9370679 -24.45285846 5.57223104 -23 1 C-22.38125 1.33 -21.7625 1.66 -21.125 2 C-12.39704581 4.79294534 -7.69667843 0 0 0 Z " fill="#9FA7BE" transform="translate(164,120)"/>
<path d="M0 0 C21.42356378 4.28471276 21.42356378 4.28471276 28 10 C29.14722784 12.80935322 29.7986512 14.89889662 30.3125 17.8125 C30.59922433 19.19422582 30.88697739 20.57573859 31.17578125 21.95703125 C31.28833252 22.56522705 31.40088379 23.17342285 31.5168457 23.80004883 C32.01063075 26.19367294 32.01063075 26.19367294 33.00048828 29.24243164 C34.05926577 33.22280396 34.51758481 37.07506359 34.81640625 41.1640625 C34.87779282 41.91916107 34.93917938 42.67425964 35.00242615 43.45223999 C35.19580108 45.84268358 35.37972582 48.23372455 35.5625 50.625 C35.7503016 53.02326745 35.94017014 55.42133784 36.13328552 57.81918335 C36.25247794 59.30477319 36.3684219 60.79062842 36.48060608 62.27676392 C36.76864617 65.92360994 37.26440535 69.42060348 38 73 C38 75.33333333 38 77.66666667 38 80 C38.17015625 80.73605469 38.3403125 81.47210938 38.515625 82.23046875 C39.14005254 85.80078428 38.97219856 89.21648662 38.75 92.8125 C38.68002808 93.97144775 38.68002808 93.97144775 38.60864258 95.15380859 C35.98752661 134.06877129 35.98752661 134.06877129 28 149 C27.34 149 26.68 149 26 149 C26 152.96 26 156.92 26 161 C18.54429535 164.60359058 10.40588468 168 2 168 C3.07317337 159.23575085 5.03827432 153.46618703 10.34375 146.4296875 C12.10251717 144.05525937 12.10251717 144.05525937 13.03125 141.2578125 C13.3509375 140.51273438 13.670625 139.76765625 14 139 C14.99 138.67 15.98 138.34 17 138 C17.19511725 135.25034772 17.38136433 132.50057868 17.5625 129.75 C17.61857422 128.97269531 17.67464844 128.19539062 17.73242188 127.39453125 C17.78076172 126.64042969 17.82910156 125.88632813 17.87890625 125.109375 C17.94960327 124.07248535 17.94960327 124.07248535 18.02172852 123.01464844 C18.08505362 120.95530599 18.08505362 120.95530599 17.41381836 118.86816406 C17.2772583 118.25166992 17.14069824 117.63517578 17 117 C18 115.66666667 19 114.33333333 20 113 C19.60061233 110.90178785 19.60061233 110.90178785 19 109 C19.99 108.01 19.99 108.01 21 107 C21.16669318 103.45828022 21.16669318 103.45828022 21 100 C21 99.67 21 99.34 21 99 C20.01 99.495 20.01 99.495 19 100 C18.87625 99.443125 18.7525 98.88625 18.625 98.3125 C18.044624 95.92299542 18.044624 95.92299542 16.875 93.5 C15.92266319 90.77903768 16.01684034 89.65453108 17 87 C17.99 87.99 18.98 88.98 20 90 C21.65 87.69 23.3 85.38 25 83 C23.02 82.67 21.04 82.34 19 82 C19.33 80.68 19.66 79.36 20 78 C18.68 77.34 17.36 76.68 16 76 C16.08772455 74.10333474 16.19591301 72.20761007 16.3125 70.3125 C16.37050781 69.25675781 16.42851562 68.20101562 16.48828125 67.11328125 C17.3167439 62.0729398 19.08308445 59.66521324 23.1875 56.6875 C26.13880185 54.39240637 26.13880185 54.39240637 26.38671875 51.90625 C26.40915076 49.43765483 26.40915076 49.43765483 26 46 C26.66 46.66 27.32 47.32 28 48 C30.10820797 47.6814823 30.10820797 47.6814823 32 47 C32 46.34 32 45.68 32 45 C31.01 45.495 31.01 45.495 30 46 C30.02320313 45.27554688 30.04640625 44.55109375 30.0703125 43.8046875 C30.17018794 38.45421756 30.16455748 34.00553918 28 29 C28.66 29 29.32 29 30 29 C29.67 27.68 29.34 26.36 29 25 C28.34 25 27.68 25 27 25 C24.70986347 21.5647952 24.82157027 20.014669 25 16 C23.68 15.67 22.36 15.34 21 15 C20.92265625 14.23171875 20.8453125 13.4634375 20.765625 12.671875 C20.24637308 9.90195508 20.24637308 9.90195508 18.109375 8.453125 C17.33078125 8.05609375 16.5521875 7.6590625 15.75 7.25 C14.98171875 6.84265625 14.2134375 6.4353125 13.421875 6.015625 C10.94249534 4.97588514 8.633664 4.49941441 6 4 C3.97762948 3.04605164 1.9717304 2.05464649 0 1 C0 0.67 0 0.34 0 0 Z " fill="#0A254A" transform="translate(178,115)"/>
<path d="M0 0 C-0.47784837 8.8813887 -1.59699383 17.58493971 -2.91113281 26.375 C-3.73780747 31.95657728 -4.39460932 37.49757699 -4.69140625 43.13671875 C-5 45 -5 45 -7 47 C-7.31574861 48.9281534 -7.31574861 48.9281534 -7.28710938 51.1550293 C-7.30052368 52.01319748 -7.31393799 52.87136566 -7.32775879 53.75553894 C-7.33303589 54.68570328 -7.33831299 55.61586761 -7.34375 56.57421875 C-7.3583728 57.53141312 -7.37299561 58.48860748 -7.38806152 59.47480774 C-7.43467222 62.54566239 -7.46878285 65.61645257 -7.5 68.6875 C-7.54126877 72.71247447 -7.59507124 76.73700324 -7.65625 80.76171875 C-7.6615271 81.68176193 -7.6668042 82.60180511 -7.67224121 83.54972839 C-7.73356784 87.54509862 -7.89104326 91.12186666 -9.08398438 94.95239258 C-10.31943062 98.00157482 -10.31943062 98.00157482 -9 101 C-8.01 101 -7.02 101 -6 101 C-4.79422572 105.94367454 -5.3709322 109.20862412 -7 114 C-9.64 113.67 -12.28 113.34 -15 113 C-15 112.01 -15 111.02 -15 110 C-17.31 109.34 -19.62 108.68 -22 108 C-20.6875 105.0625 -20.6875 105.0625 -19 102 C-17.515 101.505 -17.515 101.505 -16 101 C-17.32 101 -18.64 101 -20 101 C-20.495 101.99 -20.495 101.99 -21 103 C-21.99 103 -22.98 103 -24 103 C-27.83987555 97.25997985 -27.19113498 91.95025766 -26.75 85.25 C-26.69714844 84.19683594 -26.64429688 83.14367187 -26.58984375 82.05859375 C-26.16301407 74.32602814 -26.16301407 74.32602814 -25 72 C-24.98363728 70.39020205 -25.03575289 68.77949253 -25.12109375 67.171875 C-25.19396606 65.65243286 -25.19396606 65.65243286 -25.26831055 64.10229492 C-25.32414307 62.9960376 -25.37997559 61.88978027 -25.4375 60.75 C-25.8829681 50.56162078 -26.14209791 40.38570439 -26.1875 30.1875 C-26.20031006 28.96836914 -26.21312012 27.74923828 -26.22631836 26.49316406 C-26.24837102 7.49674204 -26.24837102 7.49674204 -23 1 C-22.38125 1.33 -21.7625 1.66 -21.125 2 C-12.39704581 4.79294534 -7.69667843 0 0 0 Z " fill="#B3B9D0" transform="translate(164,120)"/>
<path d="M0 0 C3.5625 1.625 3.5625 1.625 6 4 C7.36125 5.2065625 7.36125 5.2065625 8.75 6.4375 C12.45072738 11.06340923 12.34723548 17.33088201 13 23 C13.29970703 24.30324219 13.29970703 24.30324219 13.60546875 25.6328125 C14.23773863 29.42643178 13.05544686 32.33697855 12 36 C11.01 36 10.02 36 9 36 C9.01571045 36.90709717 9.01571045 36.90709717 9.03173828 37.83251953 C9.07354668 40.5966367 9.09940451 43.36068708 9.125 46.125 C9.14175781 47.07632813 9.15851563 48.02765625 9.17578125 49.0078125 C9.21081261 54.05232898 9.13074979 58.31686795 7 63 C2.17782556 67.65589256 -3.07334268 68.24002115 -9.5 68.4609375 C-13.13257632 67.79118124 -14.57428435 66.81162496 -17 64 C-17.73526569 60.73401695 -17.74515902 57.5253576 -17.75 54.1875 C-17.78355678 52.43093176 -17.81996333 50.67441538 -17.859375 48.91796875 C-17.87419922 48.08313965 -17.88902344 47.24831055 -17.90429688 46.38818359 C-18.03203591 43.20057319 -18.46820788 40.1435776 -19 37 C-20.32 36.67 -21.64 36.34 -23 36 C-23.66 32.04 -24.32 28.08 -25 24 C-24.34 24 -23.68 24 -23 24 C-23.33 23.01 -23.66 22.02 -24 21 C-24.50179253 15.75996977 -24.649025 11.37293749 -22.375 6.5625 C-15.68492064 -0.65574352 -9.5724237 -1.11545484 0 0 Z " fill="#966B56" transform="translate(158,56)"/>
<path d="M0 0 C2.24164241 3.36246361 3.01126918 6.2318486 4.0625 10.125 C4.90425692 14.37949798 4.90425692 14.37949798 7 18 C7.23302927 20.9732773 7.40486929 23.9278932 7.53515625 26.90625 C7.57813339 27.81894653 7.62111053 28.73164307 7.66539001 29.67199707 C7.75588138 31.61895322 7.84398507 33.56602153 7.92993164 35.51318359 C8.05949534 38.43230388 8.19804413 41.35088779 8.33789062 44.26953125 C10.14357354 83.10384577 10.14357354 83.10384577 5.4375 99.875 C3.79372856 105.84189033 3.53221337 111.70281906 3.37866211 117.85888672 C3.25844542 121.69325455 3.15724789 124.74246905 1 128 C-1.31 127.67 -3.62 127.34 -6 127 C-4.02 126.505 -4.02 126.505 -2 126 C-2.36996094 124.78183594 -2.73992187 123.56367188 -3.12109375 122.30859375 C-6.70153527 109.47513156 -6.70153527 109.47513156 -4.70703125 105.28125 C-2.89452097 103.57365548 -1.13344333 102.27109357 1 101 C1 100.67 1 100.34 1 100 C-1.31 100 -3.62 100 -6 100 C-4.55746343 96.63408134 -2.66735273 94.48952921 0 92 C-1.98 92.495 -1.98 92.495 -4 93 C-3.67 91.68 -3.34 90.36 -3 89 C-2.01 89 -1.02 89 0 89 C-0.33 86.36 -0.66 83.72 -1 81 C-0.01 80.505 -0.01 80.505 1 80 C1.35505295 77.80951984 1.35505295 77.80951984 1.4375 75.25 C1.75923883 71.09122774 2.40237888 68.38820147 5 65 C4.278125 65.33 3.55625 65.66 2.8125 66 C-0.01697427 67.00603529 -2.02895466 67.16977402 -5 67 C-5 66.01 -5 65.02 -5 64 C-2.04335481 62.5216774 0.74229737 62.93967217 4 63 C4 62.01 4 61.02 4 60 C-0.29 60.66 -4.58 61.32 -9 62 C-8.84402344 60.88367188 -8.68804687 59.76734375 -8.52734375 58.6171875 C-7.92347129 53.79257558 -7.74378656 48.9805275 -7.5625 44.125 C-7.30369989 38.17743992 -6.94857644 32.51119519 -5.53515625 26.7109375 C-4.58227706 21.88394363 -4.21723611 16.96398638 -3.78540039 12.06591797 C-3.21451673 6.21451673 -3.21451673 6.21451673 -1 4 C-0.3574765 1.93125966 -0.3574765 1.93125966 0 0 Z " fill="#072142" transform="translate(108,133)"/>
<path d="M0 0 C2.13895171 3.43701783 2.09219311 5.71635854 1.625 9.6875 C1.0877145 14.8391198 0.91372385 19.82343081 1 25 C1.99 24.34 2.98 23.68 4 23 C6.63671875 23.20703125 6.63671875 23.20703125 9.6875 23.8125 C17.89444681 25.39853771 25.77709951 26.2186313 34.125 26.25 C35.0420874 26.25394775 35.9591748 26.25789551 36.90405273 26.26196289 C43.69108715 26.20429955 49.72194511 25.34856042 56.28515625 23.55859375 C59.04355753 22.9910378 60.41750169 22.95103821 63 24 C65.25 26.0625 65.25 26.0625 67 28 C67.0928125 26.9790625 67.0928125 26.9790625 67.1875 25.9375 C68.28538855 21.96821063 70.49023975 19.21360445 73 16 C73.66 16.33 74.32 16.66 75 17 C74.60167969 17.49886719 74.20335937 17.99773437 73.79296875 18.51171875 C69.04199952 24.95038022 67.3776508 31.1812275 66 39 C45.21382655 42.73085164 21.08258643 43.37858607 1 36 C1 33.36 1 30.72 1 28 C0.34 28 -0.32 28 -1 28 C-2.71339886 25.03259792 -3.22887717 23.04144691 -3.046875 19.62890625 C-3.00433594 18.80712891 -2.96179688 17.98535156 -2.91796875 17.13867188 C-2.86253906 16.28853516 -2.80710937 15.43839844 -2.75 14.5625 C-2.71003906 13.71623047 -2.67007813 12.86996094 -2.62890625 11.99804688 C-2.37559637 7.62673992 -1.99519382 3.98221061 0 0 Z " fill="#081A37" transform="translate(114,245)"/>
<path d="M0 0 C0.66 0.33 1.32 0.66 2 1 C1.96334229 1.95849854 1.92668457 2.91699707 1.88891602 3.90454102 C1.1803386 24.29221653 2.10622583 42.69291507 7.37109375 62.4453125 C11.25034497 77.2077498 11.25034497 77.2077498 9.02001953 82.18847656 C7.31263176 84.66978836 5.72418363 86.63790819 3 88 C1.40552536 88.08400529 -0.19240545 88.10727467 -1.7890625 88.09765625 C-2.73007813 88.09443359 -3.67109375 88.09121094 -4.640625 88.08789062 C-5.62546875 88.07951172 -6.6103125 88.07113281 -7.625 88.0625 C-8.61757812 88.05798828 -9.61015625 88.05347656 -10.6328125 88.04882812 C-13.0886016 88.03702145 -15.54427104 88.020554 -18 88 C-18 87.34 -18 86.68 -18 86 C-18.66 86 -19.32 86 -20 86 C-20 85.34 -20 84.68 -20 84 C-19.01 83.505 -19.01 83.505 -18 83 C-18 81.68 -18 80.36 -18 79 C-17.34 79 -16.68 79 -16 79 C-17.5429011 76.29992307 -19.01362143 73.98517668 -21.125 71.6875 C-23.65883781 68.05566581 -23.70274907 65.3844512 -24 61 C-22.576875 60.8453125 -22.576875 60.8453125 -21.125 60.6875 C-17.70892499 60.31460705 -17.70892499 60.31460705 -16 57 C-15.01 57 -14.02 57 -13 57 C-12.67 56.01 -12.34 55.02 -12 54 C-10.35 54 -8.7 54 -7 54 C-7.33 54.66 -7.66 55.32 -8 56 C-8.99 56 -9.98 56 -11 56 C-11.2165625 56.928125 -11.2165625 56.928125 -11.4375 57.875 C-12 60 -12 60 -13 62 C-11.02 62.66 -9.04 63.32 -7 64 C-7 64.99 -7 65.98 -7 67 C-4.69 67 -2.38 67 0 67 C0.33 65.02 0.66 63.04 1 61 C1.66 61 2.32 61 3 61 C2.67 59.02 2.34 57.04 2 55 C1.01 55 0.02 55 -1 55 C-1.66 54.34 -2.32 53.68 -3 53 C-2.6875 51.125 -2.6875 51.125 -2 49 C-1.16254704 46.08348566 -0.85428688 43.44658964 -0.79467773 40.41503906 C-0.77473251 39.51440735 -0.75478729 38.61377563 -0.73423767 37.68585205 C-0.71752518 36.72217712 -0.70081268 35.7585022 -0.68359375 34.765625 C-0.66281265 33.77246277 -0.64203156 32.77930054 -0.62062073 31.75604248 C-0.55530251 28.58743118 -0.49632261 25.41873789 -0.4375 22.25 C-0.39429793 20.10025198 -0.35068309 17.95051222 -0.30664062 15.80078125 C-0.19963929 10.53394051 -0.09784009 5.26701845 0 0 Z " fill="#A5AFC9" transform="translate(156,166)"/>
<path d="M0 0 C0.33 0 0.66 0 1 0 C1.09945415 6.11090483 1.0712828 11.97403427 0 18 C3.96 17.67 7.92 17.34 12 17 C12 17.99 12 18.98 12 20 C9.03 20.33 6.06 20.66 3 21 C3 21.99 3 22.98 3 24 C6.3 23.34 9.6 22.68 13 22 C12 26 12 26 11 27 C10.76712992 28.68183948 10.58735834 30.3712416 10.4375 32.0625 C10.35371094 32.98160156 10.26992187 33.90070313 10.18359375 34.84765625 C10.09271484 35.91306641 10.09271484 35.91306641 10 37 C8.515 37.495 8.515 37.495 7 38 C7.350625 38.94875 7.70125 39.8975 8.0625 40.875 C9 44 9 44 8 46 C6.515 46.495 6.515 46.495 5 47 C4.67 47.99 4.34 48.98 4 50 C5.98 49.505 5.98 49.505 8 49 C6.55746343 52.36591866 4.66735273 54.51047079 2 57 C4.64 56.67 7.28 56.34 10 56 C8.76992379 59.01927797 7.92755418 60.05151703 5.1875 62 C2.64918753 64.76275281 2.64918753 64.76275281 3.34375 67.77734375 C3.89843344 69.85483868 4.50543971 71.91918635 5.16796875 73.96484375 C6.03145646 77.11474961 6.1404261 79.75083055 6 83 C3.36 83.33 0.72 83.66 -2 84 C-2 84.66 -2 85.32 -2 86 C-3.98 86.495 -3.98 86.495 -6 87 C-6.49015643 68.76366722 -5.22670328 50.95884361 -3.38476562 32.84716797 C-2.74891855 26.48950413 -2.2018067 20.12417961 -1.64697266 13.7590332 C-1.23322667 9.1450681 -0.6998347 4.57962007 0 0 Z " fill="#07244A" transform="translate(100,176)"/>
<path d="M0 0 C0.33 0.66 0.66 1.32 1 2 C1.66 2 2.32 2 3 2 C3.66 4.97 4.32 7.94 5 11 C5.66 11 6.32 11 7 11 C7.33 12.32 7.66 13.64 8 15 C7.34 15 6.68 15 6 15 C6.495 15.78375 6.99 16.5675 7.5 17.375 C9.43415935 22.04921842 9.26602877 26.01442381 9 31 C9.99 31 10.98 31 12 31 C11.67 31.99 11.34 32.98 11 34 C10.195625 34.144375 9.39125 34.28875 8.5625 34.4375 C6.07896294 34.74135249 6.07896294 34.74135249 5 36 C4.9071875 37.11375 4.9071875 37.11375 4.8125 38.25 C3.65935272 42.15296003 1.12962578 43.50907336 -2 46 C-3.94370233 49.10856923 -4.52648641 52.15891846 -5.125 55.75 C-5.29257813 56.73484375 -5.46015625 57.7196875 -5.6328125 58.734375 C-5.81457031 59.85585937 -5.81457031 59.85585937 -6 61 C-6.33 61 -6.66 61 -7 61 C-7 58.69 -7 56.38 -7 54 C-7.66 54 -8.32 54 -9 54 C-8.90460938 54.556875 -8.80921875 55.11375 -8.7109375 55.6875 C-7.88268299 61.3889729 -8.29945623 65.49824076 -10 71 C-10.33 71 -10.66 71 -11 71 C-10.98839844 69.96359375 -10.97679687 68.9271875 -10.96484375 67.859375 C-10.95546163 66.48958514 -10.94636188 65.11979332 -10.9375 63.75 C-10.92912109 63.06808594 -10.92074219 62.38617188 -10.91210938 61.68359375 C-10.85471739 57.90853653 -10.85471739 57.90853653 -11.4934082 54.20996094 C-12.64598232 49.18196049 -12.22621712 43.81883895 -12.24023438 38.67333984 C-12.2499681 36.50710043 -12.28103004 34.34179944 -12.3125 32.17578125 C-12.31902825 30.79427644 -12.32427942 29.41276488 -12.328125 28.03125 C-12.3374707 26.77892578 -12.34681641 25.52660156 -12.35644531 24.23632812 C-11.97905086 20.80979332 -11.45067663 19.38355523 -9 17 C-8.34 17 -7.68 17 -7 17 C-6.896875 15.824375 -6.79375 14.64875 -6.6875 13.4375 C-6.14508418 9.13637176 -5.00168264 5.8493897 -3 2 C-2.01 1.34 -1.02 0.68 0 0 Z " fill="#0C2040" transform="translate(200,129)"/>
<path d="M0 0 C0.66 0.33 1.32 0.66 2 1 C4.90418984 17.43881043 3.94220387 36.82147198 -0.5625 52.875 C-2.20627144 58.84189033 -2.46778663 64.70281906 -2.62133789 70.85888672 C-2.74155458 74.69325455 -2.84275211 77.74246905 -5 81 C-7.31 80.67 -9.62 80.34 -12 80 C-10.02 79.505 -10.02 79.505 -8 79 C-8.36996094 77.78183594 -8.73992187 76.56367188 -9.12109375 75.30859375 C-12.70153527 62.47513156 -12.70153527 62.47513156 -10.70703125 58.28125 C-8.89452097 56.57365548 -7.13344333 55.27109357 -5 54 C-5 53.67 -5 53.34 -5 53 C-7.31 53 -9.62 53 -12 53 C-10.55746343 49.63408134 -8.66735273 47.48952921 -6 45 C-7.98 45.495 -7.98 45.495 -10 46 C-9.67 44.68 -9.34 43.36 -9 42 C-8.01 42 -7.02 42 -6 42 C-6.33 39.36 -6.66 36.72 -7 34 C-6.01 33.505 -6.01 33.505 -5 33 C-4.64494705 30.80951984 -4.64494705 30.80951984 -4.5625 28.25 C-4.24076117 24.09122774 -3.59762112 21.38820147 -1 18 C-1.721875 18.33 -2.44375 18.66 -3.1875 19 C-6.01697427 20.00603529 -8.02895466 20.16977402 -11 20 C-11 19.01 -11 18.02 -11 17 C-8.04335481 15.5216774 -5.25770263 15.93967217 -2 16 C-2 15.01 -2 14.02 -2 13 C-6.29 13.66 -10.58 14.32 -15 15 C-15 14.34 -15 13.68 -15 13 C-12.35541621 11.67770811 -10.32238699 11.90322806 -7.375 11.9375 C-5.87066406 11.95103516 -5.87066406 11.95103516 -4.3359375 11.96484375 C-3.56507812 11.97644531 -2.79421875 11.98804688 -2 12 C-1.67 10.68 -1.34 9.36 -1 8 C-3.31 8 -5.62 8 -8 8 C-6.49776416 3.79373966 -3.71449966 2.26099979 0 0 Z " fill="#040D1E" transform="translate(114,180)"/>
<path d="M0 0 C21.42356378 4.28471276 21.42356378 4.28471276 28 10 C29.14722784 12.80935322 29.7986512 14.89889662 30.3125 17.8125 C30.59922433 19.19422582 30.88697739 20.57573859 31.17578125 21.95703125 C31.28833252 22.56522705 31.40088379 23.17342285 31.5168457 23.80004883 C32.00921495 26.18990283 32.00921495 26.18990283 32.99829102 29.21777344 C34.09857491 33.37219658 34.53725002 37.28812833 34.8515625 41.55859375 C34.91532074 42.34774673 34.97907898 43.13689972 35.04476929 43.94996643 C35.24485159 46.44533517 35.43508258 48.94133919 35.625 51.4375 C35.75976372 53.14002577 35.89517405 54.84250049 36.03125 56.54492188 C36.36164459 60.69606185 36.68321266 64.84780036 37 69 C35.84951172 69.16822266 35.84951172 69.16822266 34.67578125 69.33984375 C31.03809406 70.23731694 29.45766573 72.26145819 27 75 C27 73.35 27 71.7 27 70 C26.34 70 25.68 70 25 70 C24.01 70 23.02 70 22 70 C21.731875 70.598125 21.46375 71.19625 21.1875 71.8125 C20.01506533 73.97224808 18.80630718 75.35790256 17 77 C16.505 76.505 16.505 76.505 16 76 C16.01176958 74.0815587 16.10999789 72.16336221 16.25 70.25 C16.31703125 69.20328125 16.3840625 68.1565625 16.453125 67.078125 C17.34200202 62.07501718 19.10025635 59.6527552 23.1875 56.6875 C26.13880185 54.39240637 26.13880185 54.39240637 26.38671875 51.90625 C26.40915076 49.43765483 26.40915076 49.43765483 26 46 C26.66 46.66 27.32 47.32 28 48 C30.10820797 47.6814823 30.10820797 47.6814823 32 47 C32 46.34 32 45.68 32 45 C31.01 45.495 31.01 45.495 30 46 C30.02320313 45.27554688 30.04640625 44.55109375 30.0703125 43.8046875 C30.17018794 38.45421756 30.16455748 34.00553918 28 29 C28.66 29 29.32 29 30 29 C29.67 27.68 29.34 26.36 29 25 C28.34 25 27.68 25 27 25 C24.70986347 21.5647952 24.82157027 20.014669 25 16 C23.68 15.67 22.36 15.34 21 15 C20.92265625 14.23171875 20.8453125 13.4634375 20.765625 12.671875 C20.24637308 9.90195508 20.24637308 9.90195508 18.109375 8.453125 C17.33078125 8.05609375 16.5521875 7.6590625 15.75 7.25 C14.98171875 6.84265625 14.2134375 6.4353125 13.421875 6.015625 C10.94249534 4.97588514 8.633664 4.49941441 6 4 C3.97762948 3.04605164 1.9717304 2.05464649 0 1 C0 0.67 0 0.34 0 0 Z " fill="#0D2242" transform="translate(178,115)"/>
<path d="M0 0 C10.16236162 -0.19926199 10.16236162 -0.19926199 14 1 C15.35439668 3.70879335 15.06501451 6.00933268 15 9 C14.01 9.33 13.02 9.66 12 10 C12 13.96 12 17.92 12 22 C4.54429535 25.60359058 -3.59411532 29 -12 29 C-10.92682663 20.23575085 -8.96172568 14.46618703 -3.65625 7.4296875 C-2.01158926 5.01700122 -0.97597466 2.74248878 0 0 Z " fill="#734F41" transform="translate(192,254)"/>
<path d="M0 0 C3.35436048 2.2028636 5.41787498 4.60099418 6.42578125 8.5 C6.8590691 11.38303071 6.92963739 14.10181542 6.89453125 17.015625 C6.88550781 17.99144531 6.87648437 18.96726562 6.8671875 19.97265625 C6.85558594 20.70871094 6.84398437 21.44476563 6.83203125 22.203125 C6.33703125 21.213125 6.33703125 21.213125 5.83203125 20.203125 C3.3046989 19.54757381 3.3046989 19.54757381 0.83203125 19.203125 C0.83203125 18.213125 0.83203125 17.223125 0.83203125 16.203125 C1.49203125 16.203125 2.15203125 16.203125 2.83203125 16.203125 C2.83203125 13.893125 2.83203125 11.583125 2.83203125 9.203125 C0.45587139 8.01504507 -1.01914295 8.07397978 -3.66796875 8.0703125 C-4.55484375 8.06902344 -5.44171875 8.06773438 -6.35546875 8.06640625 C-7.28359375 8.07027344 -8.21171875 8.07414062 -9.16796875 8.078125 C-10.09609375 8.07425781 -11.02421875 8.07039063 -11.98046875 8.06640625 C-13.31078125 8.06833984 -13.31078125 8.06833984 -14.66796875 8.0703125 C-15.89 8.07200439 -15.89 8.07200439 -17.13671875 8.07373047 C-19.23647827 8.07510997 -19.23647827 8.07510997 -21.16796875 9.203125 C-21.82569303 12.23246991 -21.82569303 12.23246991 -22.16796875 15.203125 C-18.53796875 14.873125 -14.90796875 14.543125 -11.16796875 14.203125 C-10.83796875 12.883125 -10.50796875 11.563125 -10.16796875 10.203125 C-9.50796875 10.203125 -8.84796875 10.203125 -8.16796875 10.203125 C-6.91131897 13.10912761 -6.16796875 14.99917084 -6.16796875 18.203125 C-5.50796875 18.203125 -4.84796875 18.203125 -4.16796875 18.203125 C-4.16796875 18.863125 -4.16796875 19.523125 -4.16796875 20.203125 C-7.46796875 20.203125 -10.76796875 20.203125 -14.16796875 20.203125 C-14.16796875 19.543125 -14.16796875 18.883125 -14.16796875 18.203125 C-15.09609375 18.863125 -16.02421875 19.523125 -16.98046875 20.203125 C-20.16796875 22.203125 -20.16796875 22.203125 -23.16796875 22.203125 C-23.49796875 23.193125 -23.82796875 24.183125 -24.16796875 25.203125 C-24.82796875 24.873125 -25.48796875 24.543125 -26.16796875 24.203125 C-26.80078125 21.48046875 -26.80078125 21.48046875 -27.29296875 18.140625 C-27.54433594 16.48353516 -27.54433594 16.48353516 -27.80078125 14.79296875 C-27.92195312 13.93832031 -28.043125 13.08367187 -28.16796875 12.203125 C-27.17796875 11.873125 -26.18796875 11.543125 -25.16796875 11.203125 C-24.89984375 10.130625 -24.63171875 9.058125 -24.35546875 7.953125 C-22.66088909 2.6018208 -19.53382485 0.44519945 -14.66796875 -2.109375 C-8.96380945 -3.67801881 -5.07962125 -2.75834118 0 0 Z " fill="#987160" transform="translate(161.16796875,67.796875)"/>
<path d="M0 0 C1.32 0.66 2.64 1.32 4 2 C4 2.99 4 3.98 4 5 C6.31 5.33 8.62 5.66 11 6 C10.04663979 7.31611677 9.08714226 8.62778961 8.125 9.9375 C7.59132812 10.66839844 7.05765625 11.39929688 6.5078125 12.15234375 C5 14 5 14 3 15 C3 14.01 3 13.02 3 12 C2.34 12 1.68 12 1 12 C1.33 14.31 1.66 16.62 2 19 C2.66 18.67 3.32 18.34 4 18 C4 19.65 4 21.3 4 23 C4.66 21.68 5.32 20.36 6 19 C7.94547868 22.89095736 6.16253149 27.93113979 5 32 C4.67 32.99 4.34 33.98 4 35 C4.33 35.99 4.66 36.98 5 38 C4.2265625 38.495 4.2265625 38.495 3.4375 39 C1.62435214 41.05157897 1.62435214 41.05157897 2.375 44.375 C2.49488281 45.06335938 2.61476562 45.75171875 2.73828125 46.4609375 C3.27125728 51.6316005 2.51084025 56.84444305 2 62 C0.02 62.495 0.02 62.495 -2 63 C-2.33 64.65 -2.66 66.3 -3 68 C-3.66 67.67 -4.32 67.34 -5 67 C-5 64.36 -5 61.72 -5 59 C-4.34 59 -3.68 59 -3 59 C-2.01751476 54.9472484 -1.91840426 51.16138263 -2 47 C-2.12117187 47.61488281 -2.24234375 48.22976562 -2.3671875 48.86328125 C-2.61855469 50.07564453 -2.61855469 50.07564453 -2.875 51.3125 C-3.03742188 52.11300781 -3.19984375 52.91351563 -3.3671875 53.73828125 C-4 56 -4 56 -6 59 C-6.66 59 -7.32 59 -8 59 C-7.690625 57.948125 -7.38125 56.89625 -7.0625 55.8125 C-5.69604459 50.90933647 -4.81732448 46.02070751 -4 41 C-4.7425 41.53625 -5.485 42.0725 -6.25 42.625 C-9 44 -9 44 -11.25 43.6875 C-14.1091101 40.93050097 -13.74973165 37.87915935 -14 34 C-12 37 -12 37 -11 40 C-8.02934491 39.65772428 -8.02934491 39.65772428 -5 39 C-3.51804581 36.03609162 -3.94253403 33.27556022 -4 30 C-4 27.32261565 -3.82063453 24.77529362 -3.5625 22.11328125 C-3.47226563 21.17548828 -3.38203125 20.23769531 -3.2890625 19.27148438 C-3.14597656 17.80678711 -3.14597656 17.80678711 -3 16.3125 C-2.85691406 14.83040039 -2.85691406 14.83040039 -2.7109375 13.31835938 C-2.47522937 10.87878027 -2.2382004 8.43933682 -2 6 C-1.67 6.66 -1.34 7.32 -1 8 C-0.34 8 0.32 8 1 8 C0.67 5.36 0.34 2.72 0 0 Z " fill="#040A17" transform="translate(194,191)"/>
<path d="M0 0 C4.93852217 2.25265923 7.80894426 5.71486801 11 10 C12.1577506 13.47325181 12.06866652 16.36067448 12 20 C11.01 20 10.02 20 9 20 C8.1646875 18.63875 8.1646875 18.63875 7.3125 17.25 C4.42748294 13.19538142 1.6500105 11.59506174 -3 10 C-7.86337779 9.31912711 -10.82528783 10.4951727 -15 13 C-16.01801357 13.98165594 -17.0246803 14.97591432 -18 16 C-18.66 16 -19.32 16 -20 16 C-20.12375 17.134375 -20.2475 18.26875 -20.375 19.4375 C-20.58125 20.613125 -20.7875 21.78875 -21 23 C-21.66 23.33 -22.32 23.66 -23 24 C-24.9336187 18.1991439 -24.99359019 12.1018254 -22.375 6.5625 C-15.68492064 -0.65574352 -9.5724237 -1.11545484 0 0 Z " fill="#5F483F" transform="translate(158,56)"/>
<path d="M0 0 C0.33 0 0.66 0 1 0 C1.31141848 6.33506931 1.61362366 12.67053 1.90942383 19.00634766 C2.01114142 21.16172236 2.11496871 23.31699857 2.22094727 25.47216797 C2.37290153 28.56975211 2.51726837 31.66761104 2.66015625 34.765625 C2.70906509 35.72929993 2.75797394 36.69297485 2.80836487 37.68585205 C2.8484819 38.58648376 2.88859894 39.48711548 2.92993164 40.41503906 C2.98655724 41.60084564 2.98655724 41.60084564 3.04432678 42.81060791 C2.9992777 45.03567566 2.59843394 46.8646605 2 49 C1.64595675 52.32530839 1.49136665 55.66115578 1.3125 59 C1.25255859 59.90234375 1.19261719 60.8046875 1.13085938 61.734375 C1.0602832 63.04148437 1.0602832 63.04148437 0.98828125 64.375 C0.94227783 65.16648437 0.89627441 65.95796875 0.84887695 66.7734375 C1.02015557 69.29696085 1.84816398 70.77759336 3 73 C2.625 75.75 2.625 75.75 2 78 C-0.97 78.99 -0.97 78.99 -4 80 C-3.55044887 84.67533173 -2.97310359 87.38056955 0 91 C0 91.99 0 92.98 0 94 C-0.99 94.495 -0.99 94.495 -2 95 C-2.495 95.845625 -2.99 96.69125 -3.5 97.5625 C-3.995 98.366875 -4.49 99.17125 -5 100 C-5.66 100 -6.32 100 -7 100 C-7 100.99 -7 101.98 -7 103 C-6.01 103.33 -5.02 103.66 -4 104 C-4.66 104.433125 -5.32 104.86625 -6 105.3125 C-6.66 105.869375 -7.32 106.42625 -8 107 C-8 107.99 -8 108.98 -8 110 C-8.66 110.99 -9.32 111.98 -10 113 C-10.24107326 115.28648848 -10.24107326 115.28648848 -10.125 117.6875 C-10.10695313 118.49574219 -10.08890625 119.30398438 -10.0703125 120.13671875 C-10.04710938 120.75160156 -10.02390625 121.36648438 -10 122 C-11.65 121.67 -13.3 121.34 -15 121 C-15.21404489 116.50505728 -14.55482394 113.20717065 -13 109 C-12.07379053 105.70681077 -11.53722844 102.37686448 -11 99 C-10.34 99 -9.68 99 -9 99 C-8.93941406 98.30132812 -8.87882813 97.60265625 -8.81640625 96.8828125 C-8.73261719 95.97273438 -8.64882812 95.06265625 -8.5625 94.125 C-8.48128906 93.22007812 -8.40007812 92.31515625 -8.31640625 91.3828125 C-8 89 -8 89 -7 87 C-6.34 87 -5.68 87 -5 87 C-5.474375 85.96875 -5.94875 84.9375 -6.4375 83.875 C-7.83738488 80.60417893 -8.66823417 77.56648272 -9 74 C-8.505 73.01 -8.505 73.01 -8 72 C-6.68 72 -5.36 72 -4 72 C0.8743275 48.48673463 0.26151974 23.91452714 0 0 Z " fill="#898FA9" transform="translate(137,148)"/>
<path d="M0 0 C0.66 0.33 1.32 0.66 2 1 C2.51341572 3.6901783 2.89606042 6.28398859 3.1875 9 C3.27427002 9.7736792 3.36104004 10.5473584 3.45043945 11.34448242 C4.00363487 16.76648117 4.00369506 21.61654469 3 27 C2.90203125 27.68964844 2.8040625 28.37929687 2.703125 29.08984375 C2 31 2 31 0.28515625 32.265625 C-5.32061634 34.74832218 -10.8705006 36.38015218 -17 35 C-19.77734375 33.546875 -19.77734375 33.546875 -22 31 C-22.60729543 27.89353715 -22.47245391 24.89986157 -22.3125 21.75 C-22.28994141 20.90953125 -22.26738281 20.0690625 -22.24414062 19.203125 C-22.18537714 17.13465036 -22.09569885 15.06709512 -22 13 C-20 15 -20 15 -19 20 C-13.39 20 -7.78 20 -2 20 C-0.16643412 16.33286823 0.2585055 15.25243203 0.1875 11.4375 C0.18105469 10.67308594 0.17460937 9.90867187 0.16796875 9.12109375 C0.07053505 6.81102284 0.07053505 6.81102284 -1 4 C-0.5625 1.8125 -0.5625 1.8125 0 0 Z " fill="#855E47" transform="translate(163,89)"/>
<path d="M0 0 C0.66 0 1.32 0 2 0 C2 0.66 2 1.32 2 2 C4.97 2 7.94 2 11 2 C10.67 2.99 10.34 3.98 10 5 C7.03 5 4.06 5 1 5 C1.33 6.32 1.66 7.64 2 9 C2.66 9.33 3.32 9.66 4 10 C3.01 10.495 3.01 10.495 2 11 C1.01 10.67 0.02 10.34 -1 10 C-0.34 12.31 0.32 14.62 1 17 C5.29 17 9.58 17 14 17 C14.66 14.36 15.32 11.72 16 9 C14.68 8.67 13.36 8.34 12 8 C12.33 6.68 12.66 5.36 13 4 C13.66 4 14.32 4 15 4 C15 3.34 15 2.68 15 2 C15.99 2 16.98 2 18 2 C17.979375 3.134375 17.95875 4.26875 17.9375 5.4375 C17.58422523 8.81575674 17.58422523 8.81575674 19 10 C19.44969012 14.18557723 19.28176502 18.01382243 18.125 22.0625 C15.55585385 24.40495679 14.64755644 24.31820194 11.25 24.375 C9.49946114 24.25778779 7.74939988 24.13313546 6 24 C4.1128125 24.12375 4.1128125 24.12375 2.1875 24.25 C-1 23 -1 23 -2.5390625 20.40234375 C-4.55784623 15.7613968 -6 12.09901465 -6 7 C-6.66 6.67 -7.32 6.34 -8 6 C-6.49650603 2.99301207 -3.9581052 2.41742541 -1 1 C-0.67 0.67 -0.34 0.34 0 0 Z " fill="#835944" transform="translate(145,86)"/>
<path d="M0 0 C1.79093191 -0.08086147 3.58289628 -0.13912702 5.375 -0.1875 C6.87160156 -0.23970703 6.87160156 -0.23970703 8.3984375 -0.29296875 C9.25695312 -0.19628906 10.11546875 -0.09960938 11 0 C15.01984912 6.02977369 15.25729264 12.92445235 15 20 C12.625 19.6875 12.625 19.6875 10 19 C9.34 18.01 8.68 17.02 8 16 C7.2265625 16.3403125 7.2265625 16.3403125 6.4375 16.6875 C2.71192968 17.16513722 0.35483696 15.61290239 -3 14 C-3 10.37 -3 6.74 -3 3 C-2.01 2.67 -1.02 2.34 0 2 C0 1.34 0 0.68 0 0 Z " fill="#593C31" transform="translate(98,260)"/>
<path d="M0 0 C0.66 0.33 1.32 0.66 2 1 C1.94501343 2.4377478 1.94501343 2.4377478 1.88891602 3.90454102 C1.13421719 25.61367172 2.37178796 44.99376983 8.35742188 65.94677734 C9.07715446 69.36660094 9.10707975 72.51499107 9 76 C5.51971731 76 2.25617483 75.50549355 -1.1875 75 C-3.09595703 74.7215625 -3.09595703 74.7215625 -5.04296875 74.4375 C-6.01878906 74.293125 -6.99460938 74.14875 -8 74 C-7.505 73.01 -7.505 73.01 -7 72 C-5.5459375 71.5978125 -5.5459375 71.5978125 -4.0625 71.1875 C-0.84784144 70.30841586 -0.84784144 70.30841586 0.375 67.625 C1.15441368 64.80119238 1.15441368 64.80119238 1 61 C1.66 61 2.32 61 3 61 C2.67 59.02 2.34 57.04 2 55 C1.01 55 0.02 55 -1 55 C-1.66 54.34 -2.32 53.68 -3 53 C-2.6875 51.125 -2.6875 51.125 -2 49 C-1.16254704 46.08348566 -0.85428688 43.44658964 -0.79467773 40.41503906 C-0.77473251 39.51440735 -0.75478729 38.61377563 -0.73423767 37.68585205 C-0.70916893 36.24033966 -0.70916893 36.24033966 -0.68359375 34.765625 C-0.66281265 33.77246277 -0.64203156 32.77930054 -0.62062073 31.75604248 C-0.55530251 28.58743118 -0.49632261 25.41873789 -0.4375 22.25 C-0.39429793 20.10025198 -0.35068309 17.95051222 -0.30664062 15.80078125 C-0.19963929 10.53394051 -0.09784009 5.26701845 0 0 Z " fill="#8890AB" transform="translate(156,166)"/>
<path d="M0 0 C0 0.99 0 1.98 0 3 C-4.455 3.495 -4.455 3.495 -9 4 C-9 4.99 -9 5.98 -9 7 C-5.7 6.34 -2.4 5.68 1 5 C0 9 0 9 -1 10 C-1.23287008 11.68183948 -1.41264166 13.3712416 -1.5625 15.0625 C-1.64628906 15.98160156 -1.73007813 16.90070313 -1.81640625 17.84765625 C-1.87699219 18.55792969 -1.93757813 19.26820313 -2 20 C-2.99 20.33 -3.98 20.66 -5 21 C-4.649375 21.94875 -4.29875 22.8975 -3.9375 23.875 C-3 27 -3 27 -4 29 C-4.66 29 -5.32 29 -6 29 C-6 28.34 -6 27.68 -6 27 C-9.96 27.495 -9.96 27.495 -14 28 C-13.67 27.01 -13.34 26.02 -13 25 C-12.34 25 -11.68 25 -11 25 C-11 24.34 -11 23.68 -11 23 C-12.32 22.67 -13.64 22.34 -15 22 C-14.67 21.38125 -14.34 20.7625 -14 20.125 C-12.79213568 16.350424 -12.89177488 13.13852847 -13.02734375 9.20703125 C-13 7 -13 7 -12 5 C-12 3.68 -12 2.36 -12 1 C-7.93631321 0.22596442 -4.13574827 -0.0984702 0 0 Z " fill="#041C3E" transform="translate(112,193)"/>
<path d="M0 0 C0 1.32 0 2.64 0 4 C0.391875 3.34 0.78375 2.68 1.1875 2 C3 0 3 0 5.6875 -0.25 C6.450625 -0.1675 7.21375 -0.085 8 0 C9.17887665 3.68398952 9 7.15947033 9 11 C9.28520405 12.67557379 9.59955696 14.34817245 10 16 C9.34 16 8.68 16 8 16 C7.67 15.34 7.34 14.68 7 14 C5.68 14 4.36 14 3 14 C3.33 14.66 3.66 15.32 4 16 C1.69 16 -0.62 16 -3 16 C-3.268125 17.093125 -3.53625 18.18625 -3.8125 19.3125 C-4.87663739 22.61692663 -5.34654664 23.94960422 -8 26 C-8.33292585 21.75519536 -8.43885872 19.64457375 -6 16.0625 C-5.34 15.381875 -4.68 14.70125 -4 14 C-6.97 13.505 -6.97 13.505 -10 13 C-9.67 11.68 -9.34 10.36 -9 9 C-9.66 9 -10.32 9 -11 9 C-10.39883443 5.63347283 -9.28935401 3.54372667 -7 1 C-3.99685985 -0.97081072 -3.53646699 -1.17882233 0 0 Z " fill="#061C3C" transform="translate(207,184)"/>
<path d="M0 0 C1.08497475 3.25492424 0.92463702 4.76151185 0.44140625 8.10546875 C0.30283203 9.08837891 0.16425781 10.07128906 0.02148438 11.08398438 C-0.12998047 12.10814453 -0.28144531 13.13230469 -0.4375 14.1875 C-0.65889648 15.74114258 -0.65889648 15.74114258 -0.88476562 17.32617188 C-1.25032267 19.88507121 -1.62230318 22.44286908 -2 25 C-1.01 25.33 -0.02 25.66 1 26 C0.79375 26.70125 0.5875 27.4025 0.375 28.125 C-0.23298338 31.03293042 -0.23298338 31.03293042 1.03125 33.75 C2.1691066 37.56732538 1.84021723 39.98103951 1.125 43.875 C0.81949219 45.60363281 0.81949219 45.60363281 0.5078125 47.3671875 C0.25644531 48.67042969 0.25644531 48.67042969 0 50 C-0.33 50 -0.66 50 -1 50 C-1 47.69 -1 45.38 -1 43 C-1.66 43 -2.32 43 -3 43 C-2.90460938 43.556875 -2.80921875 44.11375 -2.7109375 44.6875 C-1.88268299 50.3889729 -2.29945623 54.49824076 -4 60 C-4.33 60 -4.66 60 -5 60 C-4.98839844 58.96359375 -4.97679687 57.9271875 -4.96484375 56.859375 C-4.95546163 55.48958514 -4.94636188 54.11979332 -4.9375 52.75 C-4.92912109 52.06808594 -4.92074219 51.38617188 -4.91210938 50.68359375 C-4.85471739 46.90853653 -4.85471739 46.90853653 -5.4934082 43.20996094 C-6.64598232 38.18196049 -6.22621712 32.81883895 -6.24023438 27.67333984 C-6.2499681 25.50710043 -6.28103004 23.34179944 -6.3125 21.17578125 C-6.31902825 19.79427644 -6.32427942 18.41276488 -6.328125 17.03125 C-6.3374707 15.77892578 -6.34681641 14.52660156 -6.35644531 13.23632812 C-5.97905086 9.80979332 -5.45067663 8.38355523 -3 6 C-2.34 6 -1.68 6 -1 6 C-0.67 4.02 -0.34 2.04 0 0 Z " fill="#060E20" transform="translate(194,140)"/>
<path d="M0 0 C21.42356378 4.28471276 21.42356378 4.28471276 28 10 C29.14722784 12.80935322 29.7986512 14.89889662 30.3125 17.8125 C30.59922433 19.19422582 30.88697739 20.57573859 31.17578125 21.95703125 C31.30758789 22.63266113 31.43939453 23.30829102 31.57519531 24.00439453 C31.98584949 25.93352514 32.52429657 27.83407774 33.06640625 29.73046875 C35.68146626 38.88864961 35.11326726 48.56106137 35 58 C34.67 58 34.34 58 34 58 C34 54.37 34 50.74 34 47 C32.0745356 45.8509288 32.0745356 45.8509288 30 46 C30.02320313 45.27554688 30.04640625 44.55109375 30.0703125 43.8046875 C30.17018794 38.45421756 30.16455748 34.00553918 28 29 C28.66 29 29.32 29 30 29 C29.67 27.68 29.34 26.36 29 25 C28.34 25 27.68 25 27 25 C24.70986347 21.5647952 24.82157027 20.014669 25 16 C23.68 15.67 22.36 15.34 21 15 C20.92265625 14.23171875 20.8453125 13.4634375 20.765625 12.671875 C20.24637308 9.90195508 20.24637308 9.90195508 18.109375 8.453125 C17.33078125 8.05609375 16.5521875 7.6590625 15.75 7.25 C14.98171875 6.84265625 14.2134375 6.4353125 13.421875 6.015625 C10.94249534 4.97588514 8.633664 4.49941441 6 4 C3.97762948 3.04605164 1.9717304 2.05464649 0 1 C0 0.67 0 0.34 0 0 Z " fill="#213659" transform="translate(178,115)"/>
<path d="M0 0 C-0.33 1.65 -0.66 3.3 -1 5 C-7.74477495 6.74303173 -13.86180372 7.28122834 -20.8125 7.1875 C-21.73998047 7.18685547 -22.66746094 7.18621094 -23.62304688 7.18554688 C-27.5978346 7.15975517 -31.15847375 7.10079465 -35 6 C-35 5.01 -35 4.02 -35 3 C-35.66 3 -36.32 3 -37 3 C-37 2.34 -37 1.68 -37 1 C-36.33991943 1.00523682 -35.67983887 1.01047363 -34.99975586 1.01586914 C-31.97901378 1.03678951 -28.958287 1.0497078 -25.9375 1.0625 C-24.37999023 1.07506836 -24.37999023 1.07506836 -22.79101562 1.08789062 C-15.12084343 1.11224038 -7.63797625 -0.15587707 0 0 Z " fill="#A9AFC4" transform="translate(169,265)"/>
<path d="M0 0 C0.33 0 0.66 0 1 0 C1.17288713 10.45006675 1.17288713 10.45006675 0.4375 15.4375 C0.05105008 18.5843065 0.13518986 20.08126577 1 23 C0.67 23.99 0.34 24.98 0 26 C-0.0290867 28.25629652 0.06480122 30.49190079 0.16015625 32.74609375 C-0.01926303 35.27109187 -0.73843496 36.8281292 -2 39 C-1.01 39.33 -0.02 39.66 1 40 C1 42 1 42 -0.5 43.625 C-1.2425 44.305625 -1.2425 44.305625 -2 45 C0.64 44.67 3.28 44.34 6 44 C4.05119657 48.05765352 1.6958185 51.82953716 -0.66015625 55.66015625 C-2.11979157 58.03104625 -2.11979157 58.03104625 -3 61 C-3.66 61 -4.32 61 -5 61 C-5.19593738 51.88275941 -4.63634543 43.05026942 -3.5625 34 C-2.63165531 25.92971011 -1.78667268 17.8776463 -1.21875 9.77270508 C-0.95905819 6.48105345 -0.53033807 3.25779098 0 0 Z " fill="#07264C" transform="translate(100,176)"/>
<path d="M0 0 C4.42857143 5.14285714 4.42857143 5.14285714 5 9 C4.01 9.495 4.01 9.495 3 10 C2.505 10.845625 2.01 11.69125 1.5 12.5625 C1.005 13.366875 0.51 14.17125 0 15 C-0.66 15 -1.32 15 -2 15 C-2 15.99 -2 16.98 -2 18 C-1.01 18.33 -0.02 18.66 1 19 C0.34 19.433125 -0.32 19.86625 -1 20.3125 C-1.66 20.869375 -2.32 21.42625 -3 22 C-3 22.99 -3 23.98 -3 25 C-3.66 25.99 -4.32 26.98 -5 28 C-5.24107326 30.28648848 -5.24107326 30.28648848 -5.125 32.6875 C-5.10695313 33.49574219 -5.08890625 34.30398438 -5.0703125 35.13671875 C-5.04710938 35.75160156 -5.02390625 36.36648438 -5 37 C-6.65 36.67 -8.3 36.34 -10 36 C-10.21404489 31.50505728 -9.55482394 28.20717065 -8 24 C-7.07379053 20.70681077 -6.53722844 17.37686448 -6 14 C-5.34 14 -4.68 14 -4 14 C-3.93941406 13.30132812 -3.87882813 12.60265625 -3.81640625 11.8828125 C-3.73261719 10.97273437 -3.64882812 10.06265625 -3.5625 9.125 C-3.48128906 8.22007812 -3.40007812 7.31515625 -3.31640625 6.3828125 C-3 4 -3 4 -2 2 C-1.34 2 -0.68 2 0 2 C0 1.34 0 0.68 0 0 Z " fill="#7A7F96" transform="translate(132,233)"/>
<path d="M0 0 C4 4.5 4 4.5 4 9 C3.34 9 2.68 9 2 9 C1.34 12.96 0.68 16.92 0 21 C-0.66 21 -1.32 21 -2 21 C-1.97679688 21.75925781 -1.95359375 22.51851562 -1.9296875 23.30078125 C-1.91164063 24.29464844 -1.89359375 25.28851563 -1.875 26.3125 C-1.85179688 27.29863281 -1.82859375 28.28476563 -1.8046875 29.30078125 C-2 32 -2 32 -4 35 C-4.66158043 37.04584079 -4.66158043 37.04584079 -5.125 39.1875 C-5.41375 40.445625 -5.7025 41.70375 -6 43 C-6.66 42.67 -7.32 42.34 -8 42 C-7.58341698 35.0057904 -6.98888271 28.24097473 -5.4609375 21.3984375 C-4.98065322 18.89933118 -4.78899896 16.47557908 -4.625 13.9375 C-4.18948537 8.75241068 -2.37986192 4.58261784 0 0 Z " fill="#51576C" transform="translate(128,226)"/>
<path d="M0 0 C0.66 0 1.32 0 2 0 C3.25664978 2.90600261 4 4.79604584 4 8 C4.66 8 5.32 8 6 8 C6 8.66 6 9.32 6 10 C2.7 10 -0.6 10 -4 10 C-4 9.34 -4 8.68 -4 8 C-4.928125 8.66 -5.85625 9.32 -6.8125 10 C-10 12 -10 12 -13 12 C-13.33 12.99 -13.66 13.98 -14 15 C-14.66 14.67 -15.32 14.34 -16 14 C-16.6328125 11.27734375 -16.6328125 11.27734375 -17.125 7.9375 C-17.29257813 6.83277344 -17.46015625 5.72804688 -17.6328125 4.58984375 C-17.75398437 3.73519531 -17.87515625 2.88054687 -18 2 C-16.35 1.67 -14.7 1.34 -13 1 C-12.67 2.32 -12.34 3.64 -12 5 C-6.555 4.505 -6.555 4.505 -1 4 C-0.67 2.68 -0.34 1.36 0 0 Z " fill="#9B7761" transform="translate(151,78)"/>
<path d="M0 0 C0.99 0.66 1.98 1.32 3 2 C3 2.99 3 3.98 3 5 C2.34 5 1.68 5 1 5 C1.33 6.65 1.66 8.3 2 10 C1.01 10 0.02 10 -1 10 C-1 10.66 -1 11.32 -1 12 C-0.34 12 0.32 12 1 12 C1 12.66 1 13.32 1 14 C6.94 14.33 12.88 14.66 19 15 C19 15.33 19 15.66 19 16 C15.56296699 16.19682269 12.12536573 16.38085152 8.6875 16.5625 C7.71103516 16.61857422 6.73457031 16.67464844 5.72851562 16.73242188 C4.79072266 16.78076172 3.85292969 16.82910156 2.88671875 16.87890625 C2.02264404 16.9260376 1.15856934 16.97316895 0.26831055 17.02172852 C-2 17 -2 17 -5 16 C-5.061875 16.5775 -5.12375 17.155 -5.1875 17.75 C-6.32027301 20.88690987 -8.34197595 22.09167504 -11 24 C-10.52498242 21.78325131 -9.9801301 19.96142901 -8.9375 17.9375 C-7.78221954 15.90865319 -7.78221954 15.90865319 -8 13 C-7.01 12.67 -6.02 12.34 -5 12 C-5.66 11.67 -6.32 11.34 -7 11 C-7 10.01 -7 9.02 -7 8 C-6.01 7.34 -5.02 6.68 -4 6 C-2.80767387 3.94996045 -2.80767387 3.94996045 -2 2 C-1.34 2 -0.68 2 0 2 C0 1.34 0 0.68 0 0 Z " fill="#8B91A8" transform="translate(137,240)"/>
<path d="M0 0 C1.77074917 -0.02705729 3.54161711 -0.04642195 5.3125 -0.0625 C6.29863281 -0.07410156 7.28476563 -0.08570312 8.30078125 -0.09765625 C11 0 11 0 14 1 C14.25 6.625 14.25 6.625 12 10 C9.03125 10.36328125 9.03125 10.36328125 5.5 10.3125 C3.75203125 10.30669922 3.75203125 10.30669922 1.96875 10.30078125 C-1 10 -1 10 -3 8 C-3.125 4.875 -3.125 4.875 -3 2 C-1.68 2 -0.36 2 1 2 C0.67 1.34 0.34 0.68 0 0 Z " fill="#8C6251" transform="translate(147,94)"/>
<path d="M0 0 C0.33 0.99 0.66 1.98 1 3 C1.33 2.67 1.66 2.34 2 2 C2.66 1.67 3.32 1.34 4 1 C3.85769192 2.41702513 3.71099254 3.8336096 3.5625 5.25 C3.48128906 6.03890625 3.40007812 6.8278125 3.31640625 7.640625 C2.87714355 10.91611479 2.04474091 13.86577728 1 17 C1.33 17.99 1.66 18.98 2 20 C1.484375 20.33 0.96875 20.66 0.4375 21 C-1.37564786 23.05157897 -1.37564786 23.05157897 -0.625 26.375 C-0.50511719 27.06335938 -0.38523438 27.75171875 -0.26171875 28.4609375 C0.27125728 33.6316005 -0.48915975 38.84444305 -1 44 C-2.98 44.495 -2.98 44.495 -5 45 C-5.495 47.475 -5.495 47.475 -6 50 C-6.66 49.67 -7.32 49.34 -8 49 C-8 46.36 -8 43.72 -8 41 C-7.34 41 -6.68 41 -6 41 C-3.62812787 35.21980741 -3.3366228 29.41001575 -2.875 23.25 C-2.78863281 22.21617187 -2.70226562 21.18234375 -2.61328125 20.1171875 C-2.1065645 13.73094788 -1.88784479 7.40530885 -2 1 C-1.34 0.67 -0.68 0.34 0 0 Z " fill="#05132D" transform="translate(197,209)"/>
<path d="M0 0 C0.33 0 0.66 0 1 0 C2.07488223 8.01894434 2.04295223 15.86297107 1.75 23.9375 C1.70625244 25.20553467 1.66250488 26.47356934 1.61743164 27.7800293 C1.19097573 38.02340944 -0.01016206 47.95069267 -2 58 C-3.485 58.495 -3.485 58.495 -5 59 C-5.66 58.34 -6.32 57.68 -7 57 C-6.79296875 54.65234375 -6.79296875 54.65234375 -6.1875 51.9375 C-5.99542969 51.03902344 -5.80335938 50.14054687 -5.60546875 49.21484375 C-5 47 -5 47 -4 46 C-3.79300437 44.50503158 -3.63320741 43.0033408 -3.5 41.5 C-3.11111111 37.11111111 -3.11111111 37.11111111 -2 36 C-1.76858138 33.33764002 -1.59643291 30.69517092 -1.46484375 28.02734375 C-1.42186661 27.22970108 -1.37888947 26.43205841 -1.33460999 25.61024475 C-1.19783674 23.05287441 -1.06760217 20.49521758 -0.9375 17.9375 C-0.84613234 16.20765957 -0.75434106 14.47784145 -0.66210938 12.74804688 C-0.43648282 8.49894169 -0.21672136 4.24956832 0 0 Z " fill="#4E5266" transform="translate(136,162)"/>
<path d="M0 0 C5.6032701 0.10023739 5.6032701 0.10023739 8.1875 2.1875 C8.89189265 3.83857638 9.5622813 5.5048462 10.1875 7.1875 C9.04152344 7.09210938 7.89554688 6.99671875 6.71484375 6.8984375 C5.18494366 6.78580682 3.6549928 6.67386424 2.125 6.5625 C1.37283203 6.49804688 0.62066406 6.43359375 -0.15429688 6.3671875 C-5.20807559 6.01714222 -9.04346046 6.43112738 -13.8125 8.1875 C-15.58527259 9.70757842 -15.58527259 9.70757842 -16.8125 11.1875 C-17.4725 11.1875 -18.1325 11.1875 -18.8125 11.1875 C-19.8125 8.1875 -19.8125 8.1875 -18.75 5.625 C-16.29814369 2.54040658 -14.6330828 2.01154727 -10.8125 1.1875 C-8.8128559 1.14977087 -6.81195939 1.14100094 -4.8125 1.1875 C-3.8125 0.1875 -3.8125 0.1875 0 0 Z " fill="#241D18" transform="translate(155.8125,59.8125)"/>
<path d="M0 0 C0.99 0 1.98 0 3 0 C2.979375 1.134375 2.95875 2.26875 2.9375 3.4375 C2.58422523 6.81575674 2.58422523 6.81575674 4 8 C4.44969012 12.18557723 4.28176502 16.01382243 3.125 20.0625 C0.03178967 22.88278001 -2.66715439 22.42827311 -6.72265625 22.2734375 C-9 22 -9 22 -11 21 C-11 20.34 -11 19.68 -11 19 C-11.99 18.67 -12.98 18.34 -14 18 C-12 17 -12 17 -8.125 17.1875 C-5.0567561 17.2153425 -4.20850655 17.13900436 -1.5625 15.375 C0.28765829 12.5627594 0.69750921 10.32739873 1 7 C-0.32 6.67 -1.64 6.34 -3 6 C-2.67 4.68 -2.34 3.36 -2 2 C-1.34 2 -0.68 2 0 2 C0 1.34 0 0.68 0 0 Z " fill="#744E3A" transform="translate(160,88)"/>
<path d="M0 0 C0.04254356 1.99954746 0.04080783 4.00041636 0 6 C-0.33 6.33 -0.66 6.66 -1 7 C-1.07179964 8.51928038 -1.08392007 10.04167482 -1.0625 11.5625 C-1.041875 13.026875 -1.02125 14.49125 -1 16 C-3.97 15.01 -6.94 14.02 -10 13 C-10.08086147 11.20906809 -10.13912702 9.41710372 -10.1875 7.625 C-10.22230469 6.62726563 -10.25710937 5.62953125 -10.29296875 4.6015625 C-10.14794922 3.31378906 -10.14794922 3.31378906 -10 2 C-6.3558226 -0.4294516 -4.28758728 -0.16179575 0 0 Z " fill="#6C4D42" transform="translate(105,261)"/>
<path d="M0 0 C1.79437243 4.16896109 0.03691787 7.75199859 -1.4375 11.75 C-1.70828369 12.49789795 -1.97906738 13.2457959 -2.25805664 14.01635742 C-5.23334192 21.99039008 -8.95502922 29.52171739 -13 37 C-13.58910156 38.09441406 -14.17820312 39.18882812 -14.78515625 40.31640625 C-18.58241662 47.08919638 -22.96794548 53.09223729 -28 59 C-28.495 57.515 -28.495 57.515 -29 56 C-27.4453125 53.64453125 -27.4453125 53.64453125 -25.125 50.8125 C-15.21918934 38.14544705 -9.27464735 24.34022565 -3.85253906 9.28857422 C-2.67933706 6.1392055 -1.35935203 3.07313634 0 0 Z " fill="#1AAFE5" transform="translate(298,188)"/>
<path d="M0 0 C2.13895171 3.43701783 2.09219311 5.71635854 1.625 9.6875 C1.0877145 14.8391198 0.91372385 19.82343081 1 25 C1.99 24.34 2.98 23.68 4 23 C7.1875 23.375 7.1875 23.375 10 24 C8.10019993 27.51463012 6.43364683 29.89550678 3 32 C2.34 32 1.68 32 1 32 C1 30.68 1 29.36 1 28 C0.34 28 -0.32 28 -1 28 C-2.71339886 25.03259792 -3.22887717 23.04144691 -3.046875 19.62890625 C-3.00433594 18.80712891 -2.96179688 17.98535156 -2.91796875 17.13867188 C-2.86253906 16.28853516 -2.80710937 15.43839844 -2.75 14.5625 C-2.71003906 13.71623047 -2.67007813 12.86996094 -2.62890625 11.99804688 C-2.37559637 7.62673992 -1.99519382 3.98221061 0 0 Z " fill="#0A0E1C" transform="translate(114,245)"/>
<path d="M0 0 C0 0.99 0 1.98 0 3 C0.66 2.67 1.32 2.34 2 2 C3.54023996 1.93049459 5.08334988 1.91547643 6.625 1.9375 C7.85089844 1.95103516 7.85089844 1.95103516 9.1015625 1.96484375 C10.04128906 1.98224609 10.04128906 1.98224609 11 2 C11 2.33 11 2.66 11 3 C8.94921875 3.22786458 6.8984375 3.45572917 4.84765625 3.68359375 C2.98859771 3.81886614 2.98859771 3.81886614 2 5 C-0.33333333 5 -2.66666667 5 -5 5 C-6.67557379 5.28520405 -8.34817245 5.59955696 -10 6 C-11.47047336 9.91063224 -11.47047336 9.91063224 -12 14 C-11.0925 13.154375 -10.185 12.30875 -9.25 11.4375 C-6.32974517 8.97396749 -6.32974517 8.97396749 -3.625 9.1875 C-3.08875 9.455625 -2.5525 9.72375 -2 10 C-6.8 12.93333333 -6.8 12.93333333 -9.25 13.75 C-11.42859677 14.99734259 -11.42859677 14.99734259 -11.625 18.5625 C-11.74875 19.696875 -11.8725 20.83125 -12 22 C-12.66 22.33 -13.32 22.66 -14 23 C-15.80654648 17.58036055 -15.79946081 11.5049772 -14.0625 6.0625 C-10.3278832 2.3278832 -5.29486415 0 0 0 Z " fill="#332B27" transform="translate(149,57)"/>
<path d="M0 0 C2 1 2 1 3 2 C3.58315335 9.11447084 3.58315335 9.11447084 1.3125 12.5625 C-1 14 -1 14 -3.75 13.75 C-4.4925 13.5025 -5.235 13.255 -6 13 C-6.66 10.03 -7.32 7.06 -8 4 C-6.68 3.34 -5.36 2.68 -4 2 C-3.29875 1.608125 -2.5975 1.21625 -1.875 0.8125 C-1.25625 0.544375 -0.6375 0.27625 0 0 Z " fill="#051A38" transform="translate(188,218)"/>
<path d="M0 0 C1.60854091 3.21708181 0.59044004 6.54244545 0.125 10 C0.03347656 10.73734375 -0.05804688 11.4746875 -0.15234375 12.234375 C-0.86414717 17.72829433 -0.86414717 17.72829433 -2 20 C-5.0625 20.625 -5.0625 20.625 -8 21 C-6.96091821 12.5141654 -5.21195254 6.72067564 0 0 Z " fill="#52372E" transform="translate(188,262)"/>
<path d="M0 0 C1.65 0 3.3 0 5 0 C4.67 0.66 4.34 1.32 4 2 C3.01 2 2.02 2 1 2 C0.7834375 2.928125 0.7834375 2.928125 0.5625 3.875 C0 6 0 6 -1 8 C0.98 8.66 2.96 9.32 5 10 C4.67 10.99 4.34 11.98 4 13 C3.15695313 12.855625 2.31390625 12.71125 1.4453125 12.5625 C-0.19824219 12.2840625 -0.19824219 12.2840625 -1.875 12 C-2.96554688 11.814375 -4.05609375 11.62875 -5.1796875 11.4375 C-7.85371964 10.94890292 -7.85371964 10.94890292 -10 11 C-10.33 12.32 -10.66 13.64 -11 15 C-11.33 12.36 -11.66 9.72 -12 7 C-11.05125 6.896875 -10.1025 6.79375 -9.125 6.6875 C-5.70892499 6.31460705 -5.70892499 6.31460705 -4 3 C-3.01 3 -2.02 3 -1 3 C-0.67 2.01 -0.34 1.02 0 0 Z " fill="#A2A9C1" transform="translate(144,220)"/>
<path d="M0 0 C11.52385524 7.30124551 20.00743329 18.11000467 28 29 C28.61319092 29.81476807 28.61319092 29.81476807 29.23876953 30.64599609 C30.37890625 32.23046875 30.37890625 32.23046875 32 35 C31.67 35.99 31.34 36.98 31 38 C30.38253906 37.10539062 29.76507813 36.21078125 29.12890625 35.2890625 C24.31966972 28.39907167 19.43619358 21.97138567 13.6171875 15.890625 C12 14 12 14 12 12 C11.42765625 11.7525 10.8553125 11.505 10.265625 11.25 C7.64989389 9.80683801 5.85226544 8.11783778 3.75 6 C3.04359375 5.29875 2.3371875 4.5975 1.609375 3.875 C0 2 0 2 0 0 Z " fill="#4795F2" transform="translate(249,35)"/>
<path d="M0 0 C0 3.86517818 -1.55524232 4.96973328 -4.16625977 7.63354492 C-4.77139404 8.2288501 -5.37652832 8.82415527 -6 9.4375 C-6.6199585 10.05278564 -7.23991699 10.66807129 -7.87866211 11.30200195 C-29.23053296 32 -29.23053296 32 -37 32 C-37 31.34 -37 30.68 -37 30 C-35.25617577 28.72359257 -33.45159728 27.52985118 -31.625 26.375 C-20.08429011 18.85728405 -9.57904021 9.89834155 0 0 Z " fill="#1AB1E3" transform="translate(266,249)"/>
<path d="M0 0 C0.33 0.66 0.66 1.32 1 2 C1.66 2 2.32 2 3 2 C3.33 1.34 3.66 0.68 4 0 C4.28875 0.763125 4.5775 1.52625 4.875 2.3125 C5.96269013 5.15029308 5.96269013 5.15029308 8 8 C7.67 8.99 7.34 9.98 7 11 C3.66981985 11 0.60151119 10.52103148 -2.6875 10 C-3.86699219 9.814375 -5.04648438 9.62875 -6.26171875 9.4375 C-7.16535156 9.293125 -8.06898438 9.14875 -9 9 C-8.67 8.34 -8.34 7.68 -8 7 C-6.5459375 6.5978125 -6.5459375 6.5978125 -5.0625 6.1875 C-1.79353796 5.30639054 -1.79353796 5.30639054 -0.625 2.375 C-0.41875 1.59125 -0.2125 0.8075 0 0 Z " fill="#959AB2" transform="translate(157,231)"/>
<path d="M0 0 C0.33 0 0.66 0 1 0 C1.17288713 10.45006675 1.17288713 10.45006675 0.4375 15.4375 C0.05105008 18.5843065 0.13518986 20.08126577 1 23 C0.67 23.99 0.34 24.98 0 26 C-0.0290867 28.25629652 0.06480122 30.49190079 0.16015625 32.74609375 C-0.01926303 35.27109187 -0.73843496 36.8281292 -2 39 C-1.01 39.33 -0.02 39.66 1 40 C1 40.66 1 41.32 1 42 C0.360625 42.12375 -0.27875 42.2475 -0.9375 42.375 C-1.618125 42.58125 -2.29875 42.7875 -3 43 C-3.33 43.66 -3.66 44.32 -4 45 C-3.49891273 35.79581802 -2.8300979 26.61785917 -2 17.4375 C-1.9170166 16.51050293 -1.8340332 15.58350586 -1.74853516 14.62841797 C-1.29641503 9.72615677 -0.74760826 4.86612877 0 0 Z " fill="#16365F" transform="translate(100,176)"/>
<path d="M0 0 C0.66 0.33 1.32 0.66 2 1 C2.25 6.625 2.25 6.625 0 10 C-0.38499891 11.65549531 -0.72793135 13.3222433 -1 15 C-1.33 14.34 -1.66 13.68 -2 13 C-6.29 13.66 -10.58 14.32 -15 15 C-15 14.34 -15 13.68 -15 13 C-12.35541621 11.67770811 -10.32238699 11.90322806 -7.375 11.9375 C-5.87066406 11.95103516 -5.87066406 11.95103516 -4.3359375 11.96484375 C-3.56507812 11.97644531 -2.79421875 11.98804688 -2 12 C-1.67 10.68 -1.34 9.36 -1 8 C-3.31 8 -5.62 8 -8 8 C-6.49776416 3.79373966 -3.71449966 2.26099979 0 0 Z " fill="#051025" transform="translate(114,180)"/>
<path d="M0 0 C9.78783457 1.95756691 19.61246663 4.40831109 28 10 C29.35439668 12.70879335 29.06501451 15.00933268 29 18 C26.7522025 15.94766315 25.9977758 14.99332739 25 12 C22.85255329 10.6028008 22.85255329 10.6028008 20.25 9.4375 C19.38890625 9.02371094 18.5278125 8.60992187 17.640625 8.18359375 C12.96392061 6.0499106 12.96392061 6.0499106 8.0625 4.5625 C5.16665638 3.77272447 2.65192333 2.38623265 0 1 C0 0.67 0 0.34 0 0 Z " fill="#344D78" transform="translate(178,115)"/>
<path d="M0 0 C1.96366922 3.71863929 3.5059527 7.5991637 5.0625 11.5 C5.33126953 12.16386719 5.60003906 12.82773437 5.87695312 13.51171875 C7.12838091 16.63872782 8.31717856 19.69548141 9 23 C6.69 23.66 4.38 24.32 2 25 C2.03480469 24.03578125 2.06960937 23.0715625 2.10546875 22.078125 C2.13253906 20.81484375 2.15960938 19.5515625 2.1875 18.25 C2.22230469 16.99703125 2.25710937 15.7440625 2.29296875 14.453125 C1.97793765 10.73995845 1.2856439 9.77195111 -1 7 C-0.6875 3.25 -0.6875 3.25 0 0 Z " fill="#949AAF" transform="translate(166,245)"/>
<path d="M0 0 C0.33 1.65 0.66 3.3 1 5 C0.34 5 -0.32 5 -1 5 C-1.33 4.34 -1.66 3.68 -2 3 C-3.32 3 -4.64 3 -6 3 C-5.67 3.66 -5.34 4.32 -5 5 C-7.31 5 -9.62 5 -12 5 C-12.268125 6.093125 -12.53625 7.18625 -12.8125 8.3125 C-13.87663739 11.61692663 -14.34654664 12.94960422 -17 15 C-17.33292585 10.75519536 -17.43885872 8.64457375 -15 5.0625 C-14.34 4.381875 -13.68 3.70125 -13 3 C-13.66 2.34 -14.32 1.68 -15 1 C-10.03926578 -0.32286246 -5.08888488 -0.08893197 0 0 Z " fill="#061937" transform="translate(216,195)"/>
<path d="M0 0 C1.08497475 3.25492424 0.92463702 4.76151185 0.44140625 8.10546875 C0.30283203 9.08837891 0.16425781 10.07128906 0.02148438 11.08398438 C-0.12998047 12.10814453 -0.28144531 13.13230469 -0.4375 14.1875 C-0.65889648 15.74114258 -0.65889648 15.74114258 -0.88476562 17.32617188 C-1.25032267 19.88507121 -1.62230318 22.44286908 -2 25 C-2.33 25 -2.66 25 -3 25 C-3.33 23.35 -3.66 21.7 -4 20 C-4.33 22.31 -4.66 24.62 -5 27 C-5.33 27 -5.66 27 -6 27 C-6.08107646 24.24940619 -6.14052813 21.50120979 -6.1875 18.75 C-6.21263672 17.97269531 -6.23777344 17.19539063 -6.26367188 16.39453125 C-6.30906596 12.85379229 -6.33187823 10.6095341 -4.61328125 7.453125 C-3 6 -3 6 -1 6 C-0.67 4.02 -0.34 2.04 0 0 Z " fill="#08152D" transform="translate(194,140)"/>
<path d="M0 0 C13.45451405 4.15262779 24.85772748 11.61602431 36 20 C36.99 20.66 37.98 21.32 39 22 C39 22.66 39 23.32 39 24 C35.7989875 22.55795972 33.0046787 20.67166199 30.1262207 18.67382812 C21.79133316 12.90393851 13.14726879 8.33459427 4 4 C2.6645503 3.33758298 1.32994937 2.67339209 0 2 C0 1.34 0 0.68 0 0 Z " fill="#548DF5" transform="translate(209,11)"/>
<path d="M0 0 C0.66 0 1.32 0 2 0 C3.25664978 2.90600261 4 4.79604584 4 8 C4.66 8 5.32 8 6 8 C6 8.66 6 9.32 6 10 C4.39667209 10.08121924 2.79215974 10.13929134 1.1875 10.1875 C0.29417969 10.22230469 -0.59914062 10.25710937 -1.51953125 10.29296875 C-4.4748757 9.94391232 -5.07198967 9.15219758 -7 7 C-9.62570704 6.74930087 -9.62570704 6.74930087 -12 7 C-12 6.34 -12 5.68 -12 5 C-6.555 4.505 -6.555 4.505 -1 4 C-0.67 2.68 -0.34 1.36 0 0 Z " fill="#936858" transform="translate(151,78)"/>
<path d="M0 0 C1.231394 3.69418201 0.64432764 6.2056261 0 10 C-3.63 10 -7.26 10 -11 10 C-11 9.01 -11 8.02 -11 7 C-10.4225 6.7525 -9.845 6.505 -9.25 6.25 C-6.87837867 5.06724944 -6.87837867 5.06724944 -4.9375 2.9375 C-3 1 -3 1 0 0 Z " fill="#0C294D" transform="translate(215,185)"/>
<path d="M0 0 C1.32 0.66 2.64 1.32 4 2 C4 2.99 4 3.98 4 5 C6.31 5.33 8.62 5.66 11 6 C10.04663979 7.31611677 9.08714226 8.62778961 8.125 9.9375 C7.59132812 10.66839844 7.05765625 11.39929688 6.5078125 12.15234375 C5 14 5 14 3 15 C3 14.01 3 13.02 3 12 C1.68 12 0.36 12 -1 12 C-1 10.68 -1 9.36 -1 8 C-0.34 8 0.32 8 1 8 C0.67 5.36 0.34 2.72 0 0 Z " fill="#050B1A" transform="translate(194,191)"/>
<path d="M0 0 C3.3 0 6.6 0 10 0 C9.01 0.33 8.02 0.66 7 1 C7 1.99 7 2.98 7 4 C5.68 4 4.36 4 3 4 C3.66 5.65 4.32 7.3 5 9 C2.66705225 9.04241723 0.33297433 9.04092937 -2 9 C-3 8 -3 8 -3.0625 4.9375 C-3.041875 3.968125 -3.02125 2.99875 -3 2 C-1.68 2 -0.36 2 1 2 C0.67 1.34 0.34 0.68 0 0 Z " fill="#926955" transform="translate(147,94)"/>
<path d="M0 0 C0.928125 0.20625 1.85625 0.4125 2.8125 0.625 C3.5 2.4375 3.5 2.4375 3.8125 4.625 C2.8125 6.375 2.8125 6.375 0.8125 7.625 C-2.875 7.8125 -2.875 7.8125 -6.1875 7.625 C-6.375 4.75 -6.375 4.75 -6.1875 1.625 C-3.1875 -0.375 -3.1875 -0.375 0 0 Z " fill="#573A2B" transform="translate(145.1875,75.375)"/>
<path d="M0 0 C0.33 0 0.66 0 1 0 C1 2.64 1 5.28 1 8 C1.66 8.33 2.32 8.66 3 9 C2.67 9.33 2.34 9.66 2 10 C1.94709355 11.91638935 1.90772654 13.83315984 1.875 15.75 C1.48999093 21.4238179 1.48999093 21.4238179 -0.62109375 23.90625 C-2.5625 25.25 -2.5625 25.25 -6 27 C-7.9375 26.5 -7.9375 26.5 -10 25 C-10.68790422 22.30341548 -10.81946464 19.7982981 -11 17 C-9 20 -9 20 -8 23 C-5.02934491 22.65772428 -5.02934491 22.65772428 -2 22 C-0.51804581 19.03609162 -0.94253403 16.27556022 -1 13 C-1 10.22003893 -0.78702071 7.57507433 -0.5 4.8125 C-0.4071875 3.91144531 -0.314375 3.01039063 -0.21875 2.08203125 C-0.1465625 1.39496094 -0.074375 0.70789063 0 0 Z " fill="#051127" transform="translate(191,208)"/>
<path d="M0 0 C0.66 0.66 1.32 1.32 2 2 C1.68634084 7.81475825 -0.60712872 14.2668842 -4 19 C-4.99 19.33 -5.98 19.66 -7 20 C-6.67 18.02 -6.34 16.04 -6 14 C-5.34 14 -4.68 14 -4 14 C-3.93941406 13.30132812 -3.87882813 12.60265625 -3.81640625 11.8828125 C-3.69072266 10.51769531 -3.69072266 10.51769531 -3.5625 9.125 C-3.48128906 8.22007812 -3.40007812 7.31515625 -3.31640625 6.3828125 C-3 4 -3 4 -2 2 C-1.34 2 -0.68 2 0 2 C0 1.34 0 0.68 0 0 Z " fill="#70768E" transform="translate(132,233)"/>
<path d="M0 0 C3.74040519 3.49656038 3.58695908 5.96090084 4 11 C3.01 11.33 2.02 11.66 1 12 C1 13.65 1 15.3 1 17 C2.32 16.67 3.64 16.34 5 16 C4.67 18.31 4.34 20.62 4 23 C3.01 23 2.02 23 1 23 C-0.77504706 19.95879308 -1.21305767 17.95325346 -0.9765625 14.453125 C-0.925 13.60878906 -0.8734375 12.76445312 -0.8203125 11.89453125 C-0.75585938 11.02183594 -0.69140625 10.14914063 -0.625 9.25 C-0.53992188 7.91775391 -0.53992188 7.91775391 -0.453125 6.55859375 C-0.31202454 4.37153668 -0.1606567 2.1856931 0 0 Z " fill="#9FA5BC" transform="translate(138,198)"/>
<path d="M0 0 C3 0.1875 3 0.1875 5 1.1875 C4.67 2.8375 4.34 4.4875 4 6.1875 C1.36 6.5175 -1.28 6.8475 -4 7.1875 C-4.625 4.8125 -4.625 4.8125 -5 2.1875 C-3 0.1875 -3 0.1875 0 0 Z " fill="#493224" transform="translate(159,74.8125)"/>
<path d="M0 0 C0 3.96 0 7.92 0 12 C-1.32 12 -2.64 12 -4 12 C-4 11.34 -4 10.68 -4 10 C-4.99 10 -5.98 10 -7 10 C-7 9.34 -7 8.68 -7 8 C-6.34 8 -5.68 8 -5 8 C-5.33 6.68 -5.66 5.36 -6 4 C-1.125 0 -1.125 0 0 0 Z " fill="#040712" transform="translate(111,236)"/>
<path d="M0 0 C3.33970213 3.33970213 4.11560468 6.58499962 4.1953125 11.20703125 C4.18213414 12.74230984 4.15845284 14.27752934 4.125 15.8125 C4.11597656 16.60076172 4.10695313 17.38902344 4.09765625 18.20117188 C4.07422504 20.13424666 4.03835838 22.0671638 4 24 C3.34 24.33 2.68 24.66 2 25 C0.96912119 19.71566323 0.68388642 14.48895352 0.4375 9.125 C0.39431641 8.24585938 0.35113281 7.36671875 0.30664062 6.4609375 C0.20130661 4.30744203 0.10022351 2.15373936 0 0 Z " fill="#051126" transform="translate(111,144)"/>
<path d="M0 0 C1.65 0 3.3 0 5 0 C6.35439668 2.70879335 6.06501451 5.00933268 6 8 C4.35 8.33 2.7 8.66 1 9 C-0.625 7.3125 -0.625 7.3125 -2 5 C-1.1875 2.25 -1.1875 2.25 0 0 Z " fill="#B7A17F" transform="translate(201,255)"/>
<path d="M0 0 C0.66 0 1.32 0 2 0 C2 0.66 2 1.32 2 2 C4.97 2 7.94 2 11 2 C10.67 2.99 10.34 3.98 10 5 C7.03 5 4.06 5 1 5 C1.33 5.99 1.66 6.98 2 8 C-1 8 -1 8 -3 7 C-2.25 2.25 -2.25 2.25 0 0 Z " fill="#6B4634" transform="translate(145,86)"/>
<path d="M0 0 C1.32 0.66 2.64 1.32 4 2 C3.34 3.65 2.68 5.3 2 7 C1.34 7 0.68 7 0 7 C0 7.66 0 8.32 0 9 C-3.3 9 -6.6 9 -10 9 C-10.33 8.01 -10.66 7.02 -11 6 C-8.03 6 -5.06 6 -2 6 C-1.34 4.02 -0.68 2.04 0 0 Z " fill="#7D5243" transform="translate(157,85)"/>
<path d="M0 0 C0.33 0 0.66 0 1 0 C2.10102642 8.35600408 2.10094304 16.58807963 2 25 C1.67 25 1.34 25 1 25 C1 21.37 1 17.74 1 14 C-0.9254644 12.8509288 -0.9254644 12.8509288 -3 13 C-3.28358209 5.62686567 -3.28358209 5.62686567 -1 2 C-0.67 1.34 -0.34 0.68 0 0 Z " fill="#223758" transform="translate(211,148)"/>
<path d="M0 0 C0.85298376 3.67387495 1.10789471 7.0447393 1.0625 10.8125 C1.05347656 11.78832031 1.04445312 12.76414062 1.03515625 13.76953125 C1.02355469 14.50558594 1.01195312 15.24164063 1 16 C0.67 15.34 0.34 14.68 0 14 C-2.52733235 13.34444881 -2.52733235 13.34444881 -5 13 C-5 12.01 -5 11.02 -5 10 C-4.34 10 -3.68 10 -3 10 C-2.73067479 5.34947128 -2.73067479 5.34947128 -4 1 C-2 0 -2 0 0 0 Z " fill="#B5886B" transform="translate(167,74)"/>
<path d="M0 0 C-0.33 1.65 -0.66 3.3 -1 5 C1.64 5 4.28 5 7 5 C7.66 3.68 8.32 2.36 9 1 C9.042721 2.66611905 9.04063832 4.33382885 9 6 C8 7 8 7 5.71484375 7.09765625 C4.34005859 7.08025391 4.34005859 7.08025391 2.9375 7.0625 C2.01839844 7.05347656 1.09929687 7.04445313 0.15234375 7.03515625 C-0.55792969 7.02355469 -1.26820313 7.01195313 -2 7 C-2.33 5.35 -2.66 3.7 -3 2 C-3.66 2 -4.32 2 -5 2 C-5.33 3.32 -5.66 4.64 -6 6 C-7.32 6.33 -8.64 6.66 -10 7 C-9.34 6.01 -8.68 5.02 -8 4 C-8 2.68 -8 1.36 -8 0 C-2.25 -1.125 -2.25 -1.125 0 0 Z " fill="#7F5845" transform="translate(156,76)"/>
<path d="M0 0 C-4.2899499 2.59184473 -8.41748859 4.67187219 -13.14453125 6.3359375 C-14.72789779 6.90261605 -16.27572701 7.56698978 -17.8125 8.25 C-20 9 -20 9 -23 8 C-20.77208002 6.87247351 -18.54274113 5.74791861 -16.3125 4.625 C-15.68666016 4.30789062 -15.06082031 3.99078125 -14.41601562 3.6640625 C-4.10278591 -1.51955034 -4.10278591 -1.51955034 0 0 Z " fill="#2A4976" transform="translate(130,118)"/>
<path d="M0 0 C0.6875 1.8125 0.6875 1.8125 1 4 C0 5.6875 0 5.6875 -2 7 C-8.33333333 8.33333333 -8.33333333 8.33333333 -11 7 C-11 6.34 -11 5.68 -11 5 C-11.99 4.67 -12.98 4.34 -14 4 C-12 3 -12 3 -8.125 3.125 C-5.10950382 3.1798272 -4.17531162 3.10518697 -1.5 1.5 C-1.005 1.005 -0.51 0.51 0 0 Z " fill="#493123" transform="translate(160,102)"/>
<path d="M0 0 C4.28806873 0.47645208 6.26647487 1.65902484 9 5 C9 5.66 9 6.32 9 7 C7.27054347 6.85764543 5.54144346 6.71095618 3.8125 6.5625 C2.36810547 6.44068359 2.36810547 6.44068359 0.89453125 6.31640625 C-1.78649602 6.02333849 -4.3662986 5.57296246 -7 5 C-7 4.67 -7 4.34 -7 4 C-4.36 3.34 -1.72 2.68 1 2 C0.67 1.34 0.34 0.68 0 0 Z " fill="#30241B" transform="translate(157,60)"/>
<path d="M0 0 C-0.33 0.99 -0.66 1.98 -1 3 C-9.11388044 4.21521251 -16.85351368 3.76299944 -25 3 C-25 2.67 -25 2.34 -25 2 C-22.14633646 1.66178803 -19.29219404 1.3293022 -16.4375 1 C-15.63763672 0.90460938 -14.83777344 0.80921875 -14.01367188 0.7109375 C-9.30547833 0.17285824 -4.73852735 -0.10176703 0 0 Z " fill="#ADB6CE" transform="translate(169,265)"/>
<path d="M0 0 C0.99 0.66 1.98 1.32 3 2 C3 2.99 3 3.98 3 5 C2.34 5 1.68 5 1 5 C1.33 6.65 1.66 8.3 2 10 C1.01 10 0.02 10 -1 10 C-1 10.66 -1 11.32 -1 12 C-0.34 12.33 0.32 12.66 1 13 C-0.32 12.67 -1.64 12.34 -3 12 C-4.46726798 8.18510326 -3.43336419 5.70988378 -2 2 C-1.34 2 -0.68 2 0 2 C0 1.34 0 0.68 0 0 Z " fill="#939AB0" transform="translate(137,240)"/>
<path d="M0 0 C1.5 1.25 1.5 1.25 3 3 C3 4.32 3 5.64 3 7 C2.01 7 1.02 7 0 7 C-0.66 10.63 -1.32 14.26 -2 18 C-2.66 17.67 -3.32 17.34 -4 17 C-4.48736475 10.29873464 -3.07708804 5.93438408 0 0 Z " fill="#3E4353" transform="translate(128,226)"/>
<path d="M0 0 C0.99 0.33 1.98 0.66 3 1 C2.88480819 3.97983024 2.75809198 6.95845792 2.625 9.9375 C2.5940625 10.76830078 2.563125 11.59910156 2.53125 12.45507812 C2.26382297 18.18247369 1.38177413 23.43358471 0 29 C-0.33 29 -0.66 29 -1 29 C-0.67 19.43 -0.34 9.86 0 0 Z " fill="#050C1B" transform="translate(190,171)"/>
<path d="M0 0 C1.31787014 4.35206448 0.50955241 8.11820027 -0.3125 12.5 C-0.44333984 13.25925781 -0.57417969 14.01851562 -0.70898438 14.80078125 C-1.37836177 18.49367492 -2.01923343 21.74773698 -4 25 C-4.66 25 -5.32 25 -6 25 C-5.33854315 19.33580057 -4.01244028 14.03729239 -2.4375 8.5625 C-2.20353516 7.73556641 -1.96957031 6.90863281 -1.72851562 6.05664062 C-1.15636985 4.03661574 -0.57874796 2.01814324 0 0 Z " fill="#071833" transform="translate(169,157)"/>
<path d="M0 0 C4.26075005 4.26075005 5.11453787 8.53685847 5.125 14.4375 C5.08375 15.613125 5.0425 16.78875 5 18 C4.67 17.34 4.34 16.68 4 16 C3.34 16 2.68 16 2 16 C1.34 14.02 0.68 12.04 0 10 C0.66 10 1.32 10 2 10 C1.34 6.7 0.68 3.4 0 0 Z " fill="#192844" transform="translate(206,134)"/>
<path d="M0 0 C1.17661508 3.67692213 1.14475933 7.1638778 1 11 C0.67 11.33 0.34 11.66 0 12 C-0.29849 13.84846443 -0.53892822 15.70637897 -0.75390625 17.56640625 C-0.88603516 18.69111328 -1.01816406 19.81582031 -1.15429688 20.97460938 C-1.28900391 22.15861328 -1.42371094 23.34261719 -1.5625 24.5625 C-1.70107422 25.75037109 -1.83964844 26.93824219 -1.98242188 28.16210938 C-2.32547648 31.10764722 -2.66448547 34.05359533 -3 37 C-3.33 37 -3.66 37 -4 37 C-3.56678947 27.99378104 -2.98231536 19.02726672 -2 10.0625 C-1.9170166 9.28793457 -1.8340332 8.51336914 -1.74853516 7.71533203 C-1.12564708 2.25129415 -1.12564708 2.25129415 0 0 Z " fill="#233F6B" transform="translate(106,127)"/>
<path d="M0 0 C0.53625 0.268125 1.0725 0.53625 1.625 0.8125 C-3.175 3.74583333 -3.175 3.74583333 -5.625 4.5625 C-7.80359677 5.80984259 -7.80359677 5.80984259 -8 9.375 C-8.12375 10.509375 -8.2475 11.64375 -8.375 12.8125 C-9.365 13.3075 -9.365 13.3075 -10.375 13.8125 C-11.65817892 9.96296324 -11.44143637 6.86511865 -11.375 2.8125 C-10.385 2.8125 -9.395 2.8125 -8.375 2.8125 C-8.375 3.4725 -8.375 4.1325 -8.375 4.8125 C-7.4675 3.966875 -6.56 3.12125 -5.625 2.25 C-2.70474517 -0.21353251 -2.70474517 -0.21353251 0 0 Z " fill="#49382E" transform="translate(145.375,66.1875)"/>
<path d="M0 0 C0.33 0 0.66 0 1 0 C1.02687279 1.81242052 1.04633715 3.62495233 1.0625 5.4375 C1.07410156 6.44683594 1.08570313 7.45617187 1.09765625 8.49609375 C1 11 1 11 0 12 C-1.66617115 12.04063832 -3.33388095 12.042721 -5 12 C-5.33 13.32 -5.66 14.64 -6 16 C-7.125 10.25 -7.125 10.25 -6 8 C-4.68 8 -3.36 8 -2 8 C-1.34 5.36 -0.68 2.72 0 0 Z " fill="#6E7388" transform="translate(135,212)"/>
<path d="M0 0 C1.53166168 4.08443115 0.63081652 7.79455657 0 12 C-1.65 12.33 -3.3 12.66 -5 13 C-4.54996653 7.37458159 -3.31558515 4.38512875 0 0 Z " fill="#5A3C33" transform="translate(185,270)"/>
<path d="M0 0 C2.13895171 3.43701783 2.09219311 5.71635854 1.625 9.6875 C1.0877145 14.8391198 0.91372385 19.82343081 1 25 C1.66 25.33 2.32 25.66 3 26 C2.01 26.33 1.02 26.66 0 27 C-0.3951701 23.43943673 -0.76255613 19.87653136 -1.125 16.3125 C-1.23714844 15.30509766 -1.34929687 14.29769531 -1.46484375 13.25976562 C-1.56152344 12.28330078 -1.65820312 11.30683594 -1.7578125 10.30078125 C-1.8520752 9.40528564 -1.94633789 8.50979004 -2.04345703 7.5871582 C-1.99406648 4.64675526 -1.23853023 2.64595094 0 0 Z " fill="#061934" transform="translate(114,245)"/>
<path d="M0 0 C1.5625 1.6875 1.5625 1.6875 3 4 C2.6875 6.75 2.6875 6.75 2 9 C0.02 9.66 -1.96 10.32 -4 11 C-4 12.65 -4 14.3 -4 16 C-6.09749995 13.64031256 -6.96905704 12.45383006 -7.1875 9.25 C-7.125625 8.5075 -7.06375 7.765 -7 7 C-4.36 7 -1.72 7 1 7 C0.67 4.69 0.34 2.38 0 0 Z " fill="#8C96B1" transform="translate(137,217)"/>
<path d="M0 0 C0.66 0.99 1.32 1.98 2 3 C-3.07476794 4.26305335 -7.72796354 5.27036084 -13 5 C-12.67 4.01 -12.34 3.02 -12 2 C-8.03367679 0.55076652 -4.23149794 -0.60449971 0 0 Z " fill="#1B150F" transform="translate(157,60)"/>
<path d="M0 0 C2.97 0 5.94 0 9 0 C8.67 0.99 8.34 1.98 8 3 C7.34 3 6.68 3 6 3 C6 4.32 6 5.64 6 7 C5.34 7 4.68 7 4 7 C4 6.34 4 5.68 4 5 C2.02 5.33 0.04 5.66 -2 6 C-1.34 4.02 -0.68 2.04 0 0 Z " fill="#5B3D2C" transform="translate(192,254)"/>
<path d="M0 0 C0 0.99 0 1.98 0 3 C-0.66 3 -1.32 3 -2 3 C-2.28875 3.969375 -2.5775 4.93875 -2.875 5.9375 C-4 9 -4 9 -6 10 C-7.0013988 6.99580359 -7.51421457 4.12290635 -8 1 C-4.93251126 -0.86240388 -3.40254489 -1.2151946 0 0 Z " fill="#091732" transform="translate(201,169)"/>
<path d="M0 0 C0 0.99 0 1.98 0 3 C-2.21586479 4.80113074 -4.39113653 6.40870322 -6.75 8 C-8.01580327 8.87474209 -9.28143273 9.74973576 -10.546875 10.625 C-11.14435547 11.03363281 -11.74183594 11.44226562 -12.35742188 11.86328125 C-14.27745465 13.19200786 -16.14795744 14.57822995 -18 16 C-18 15.01 -18 14.02 -18 13 C-15.97504193 11.19740189 -13.98969524 9.59707957 -11.8125 8 C-11.23435547 7.56171875 -10.65621094 7.1234375 -10.06054688 6.671875 C-6.81494702 4.23675827 -3.52648237 2.01892776 0 0 Z " fill="#796EF9" transform="translate(71,24)"/>
<path d="M0 0 C2.28304899 0.0179485 4.52425196 0.11763285 6.796875 0.33203125 C6.136875 1.98203125 5.476875 3.63203125 4.796875 5.33203125 C1.496875 5.33203125 -1.803125 5.33203125 -5.203125 5.33203125 C-4.06475685 2.29638286 -3.36675282 0.50740069 0 0 Z " fill="#041A38" transform="translate(107.203125,186.66796875)"/>
<path d="M0 0 C0.83595703 0.05220703 1.67191406 0.10441406 2.53320312 0.15820312 C4.58500789 0.28717371 6.63631306 0.42405021 8.6875 0.5625 C8.6875 0.8925 8.6875 1.2225 8.6875 1.5625 C5.23004978 1.78777296 1.77162975 1.98983544 -1.6875 2.1875 C-3.16476563 2.28417969 -3.16476563 2.28417969 -4.671875 2.3828125 C-5.61289063 2.434375 -6.55390625 2.4859375 -7.5234375 2.5390625 C-8.39274902 2.59143066 -9.26206055 2.64379883 -10.15771484 2.69775391 C-12.3125 2.5625 -12.3125 2.5625 -14.3125 0.5625 C-9.49068019 -0.76325494 -4.92417933 -0.33812439 0 0 Z " fill="#9699AB" transform="translate(147.3125,254.4375)"/>
<path d="M0 0 C1.81508956 3.44358114 3.2239286 6.9953238 4.625 10.625 C5.07101563 11.77226562 5.51703125 12.91953125 5.9765625 14.1015625 C7 17 7 17 7 19 C6.34 19 5.68 19 5 19 C4.73445312 18.38511719 4.46890625 17.77023437 4.1953125 17.13671875 C3.84210938 16.32847656 3.48890625 15.52023437 3.125 14.6875 C2.77695313 13.88699219 2.42890625 13.08648437 2.0703125 12.26171875 C0.97428106 9.8038166 0.97428106 9.8038166 -1 7 C-0.625 3.3125 -0.625 3.3125 0 0 Z " fill="#788199" transform="translate(166,245)"/>
<path d="M0 0 C2.82231316 3.50400053 5.60493633 7.03141458 8.3125 10.625 C9.38951172 12.03652344 9.38951172 12.03652344 10.48828125 13.4765625 C10.98714844 14.30929688 11.48601563 15.14203125 12 16 C11.67 16.99 11.34 17.98 11 19 C9.55628097 17.12952125 8.12006561 15.25399303 6.6875 13.375 C5.48673828 11.80878906 5.48673828 11.80878906 4.26171875 10.2109375 C2.16141629 7.22916096 0.53217103 4.3023492 -1 1 C-0.67 0.67 -0.34 0.34 0 0 Z " fill="#5189F0" transform="translate(25,228)"/>
<path d="M0 0 C0.33 0.66 0.66 1.32 1 2 C2.32 1.67 3.64 1.34 5 1 C3.61811547 4.21043882 2.07578097 6.04936365 -0.625 8.25 C-1.25664063 8.77078125 -1.88828125 9.2915625 -2.5390625 9.828125 C-3.02117187 10.21484375 -3.50328125 10.6015625 -4 11 C-4.66 10.67 -5.32 10.34 -6 10 C-4.02 6.7 -2.04 3.4 0 0 Z " fill="#031E42" transform="translate(103,224)"/>
<path d="M0 0 C1.94547868 3.89095736 0.16253149 8.93113979 -1 13 C-1.33 13.99 -1.66 14.98 -2 16 C-1.67 16.99 -1.34 17.98 -1 19 C-1.99 19.66 -2.98 20.32 -4 21 C-4.41223573 13.82404475 -3.62141962 7.72333012 -1 1 C-0.67 0.67 -0.34 0.34 0 0 Z " fill="#041736" transform="translate(200,210)"/>
<path d="M0 0 C0.99 0 1.98 0 3 0 C3 0.66 3 1.32 3 2 C4.32 2 5.64 2 7 2 C7 4.97 7 7.94 7 11 C6.67 11 6.34 11 6 11 C5.67 9.35 5.34 7.7 5 6 C3.68 6.33 2.36 6.66 1 7 C0.67 4.69 0.34 2.38 0 0 Z " fill="#07162F" transform="translate(104,246)"/>
<path d="M0 0 C0 0.66 0 1.32 0 2 C-1.98 2 -3.96 2 -6 2 C-6 2.66 -6 3.32 -6 4 C-6.66 4 -7.32 4 -8 4 C-8 3.01 -8 2.02 -8 1 C-8.93972656 1.45052734 -8.93972656 1.45052734 -9.8984375 1.91015625 C-10.71570313 2.29042969 -11.53296875 2.67070313 -12.375 3.0625 C-13.18710938 3.44535156 -13.99921875 3.82820313 -14.8359375 4.22265625 C-15.55007812 4.47917969 -16.26421875 4.73570313 -17 5 C-17.66 4.67 -18.32 4.34 -19 4 C-13.30650278 -1.20548317 -7.39364896 -0.394913 0 0 Z " fill="#4E403B" transform="translate(157,56)"/>
<path d="M0 0 C2.50304378 3.75456567 2.45280074 5.54745934 2 10 C0 13.4375 0 13.4375 -2 16 C-2.66 14.68 -3.32 13.36 -4 12 C-3.34 11.67 -2.68 11.34 -2 11 C-1.57014306 8.67646015 -1.57014306 8.67646015 -1.4375 6 C-1.09618321 1.09618321 -1.09618321 1.09618321 0 0 Z " fill="#020E24" transform="translate(111,202)"/>
<path d="M0 0 C0.66 0 1.32 0 2 0 C3.25664978 2.90600261 4 4.79604584 4 8 C4.66 8.33 5.32 8.66 6 9 C3.69 9 1.38 9 -1 9 C-1.125 2.25 -1.125 2.25 0 0 Z " fill="#A17A6C" transform="translate(151,78)"/>
<path d="M0 0 C0.99 0 1.98 0 3 0 C4.98362069 2.91708924 4.9876191 4.12380904 4.625 7.75 C4.41875 8.8225 4.2125 9.895 4 11 C3.34 11 2.68 11 2 11 C0 3.375 0 3.375 0 0 Z " fill="#886255" transform="translate(167,76)"/>
<path d="M0 0 C3 1 3 1 5 3 C5.1953125 5.1640625 5.1953125 5.1640625 5.125 7.625 C5.10695312 8.44226563 5.08890625 9.25953125 5.0703125 10.1015625 C5.03550781 11.04128906 5.03550781 11.04128906 5 12 C4.01 12.495 4.01 12.495 3 13 C2.814375 12.1646875 2.814375 12.1646875 2.625 11.3125 C2.03803818 8.93038319 2.03803818 8.93038319 0.9375 6.5 C0 4 0 4 0 0 Z " fill="#14304F" transform="translate(194,202)"/>
<path d="M0 0 C1.32 0.66 2.64 1.32 4 2 C4 2.99 4 3.98 4 5 C4.66 5.66 5.32 6.32 6 7 C4.68 7.33 3.36 7.66 2 8 C1.67 9.32 1.34 10.64 1 12 C0.34 12 -0.32 12 -1 12 C-1 10.68 -1 9.36 -1 8 C-0.34 8 0.32 8 1 8 C0.67 5.36 0.34 2.72 0 0 Z " fill="#0A1223" transform="translate(194,191)"/>
<path d="M0 0 C3.3 0 6.6 0 10 0 C9.01 0.33 8.02 0.66 7 1 C7 1.99 7 2.98 7 4 C5.68 4 4.36 4 3 4 C3.33 4.99 3.66 5.98 4 7 C3.01 7 2.02 7 1 7 C1.020625 6.21625 1.04125 5.4325 1.0625 4.625 C1.18684063 2.01885039 1.18684063 2.01885039 0 0 Z " fill="#957366" transform="translate(147,94)"/>
<path d="M0 0 C0.33 0.99 0.66 1.98 1 3 C0.38125 3.061875 -0.2375 3.12375 -0.875 3.1875 C-1.926875 3.5896875 -1.926875 3.5896875 -3 4 C-3.70211894 5.65204456 -4.36971413 7.31923769 -5 9 C-5.99 9.33 -6.98 9.66 -8 10 C-7.37064741 7.06302123 -6.67498244 4.51247366 -5 2 C-2.375 0.75 -2.375 0.75 0 0 Z " fill="#3C312F" transform="translate(142,59)"/>
<path d="M0 0 C1.99097846 2.98646769 2.94124926 5.59687262 4 9 C1.03 8.505 1.03 8.505 -2 8 C-2.125 5.125 -2.125 5.125 -2 2 C-1.34 1.34 -0.68 0.68 0 0 Z " fill="#040917" transform="translate(147,277)"/>
<path d="M0 0 C0.66 0.66 1.32 1.32 2 2 C1.505 2.474375 1.01 2.94875 0.5 3.4375 C-1.70453669 7.20358351 -1.24608113 10.73459379 -1 15 C-2.32 14.67 -3.64 14.34 -5 14 C-5.28883414 9.93465943 -4.57875609 7.66941645 -2.5 4.1875 C-2.0359375 3.39730469 -1.571875 2.60710937 -1.09375 1.79296875 C-0.55234375 0.90544922 -0.55234375 0.90544922 0 0 Z " fill="#7F869E" transform="translate(128,255)"/>
<path d="M0 0 C6.93 0.495 6.93 0.495 14 1 C12 3 12 3 9.8359375 3.1953125 C8.61777344 3.16050781 8.61777344 3.16050781 7.375 3.125 C6.55773437 3.10695313 5.74046875 3.08890625 4.8984375 3.0703125 C4.27195313 3.04710938 3.64546875 3.02390625 3 3 C3.66 3.33 4.32 3.66 5 4 C4.67 4.66 4.34 5.32 4 6 C3.01 5.67 2.02 5.34 1 5 C0.67 3.35 0.34 1.7 0 0 Z " fill="#624434" transform="translate(144,103)"/>
<path d="M0 0 C0.33 0 0.66 0 1 0 C1 3.96 1 7.92 1 12 C0.01 12 -0.98 12 -2 12 C-2 11.01 -2 10.02 -2 9 C-2.04125 7.824375 -2.0825 6.64875 -2.125 5.4375 C-2 2 -2 2 0 0 Z " fill="#03040C" transform="translate(115,204)"/>
<path d="M0 0 C8.30622213 0.34826927 8.30622213 0.34826927 11.0625 2.9375 C12 5 12 5 12 7 C7.63075156 6.51452795 5.92016585 5.21218243 3 2 C2.01 1.34 1.02 0.68 0 0 Z " fill="#523F34" transform="translate(157,66)"/>
<path d="M0 0 C3.15295167 3.15295167 5 6.51187917 5 11 C2.17750049 9.96508351 1.16625774 9.30084735 -0.3125 6.625 C-1.02770914 3.89420147 -0.9659657 2.60810739 0 0 Z " fill="#785337" transform="translate(198,256)"/>
<path d="M0 0 C0.33 1.65 0.66 3.3 1 5 C0.34 5 -0.32 5 -1 5 C-1.66 4.01 -2.32 3.02 -3 2 C-6.10494126 1.68154449 -8.01726077 2.00575359 -11 3 C-13.1875 2.0625 -13.1875 2.0625 -15 1 C-10.03926578 -0.32286246 -5.08888488 -0.08893197 0 0 Z " fill="#0B162A" transform="translate(216,195)"/>
<path d="M0 0 C0.66 0.66 1.32 1.32 2 2 C0.23628182 3.03307771 -1.53625033 4.05112049 -3.3125 5.0625 C-4.79169922 5.91521484 -4.79169922 5.91521484 -6.30078125 6.78515625 C-9 8 -9 8 -12 7 C-8.03712501 4.59825758 -4.02784753 2.29034467 0 0 Z " fill="#15ACE9" transform="translate(225,281)"/>
<path d="M0 0 C0.66 0.66 1.32 1.32 2 2 C1 5 1 5 0 6.9375 C-0.97824907 8.95513871 -1.53164672 10.81435137 -2 13 C-2.66 13 -3.32 13 -4 13 C-3.85892253 11.54119891 -3.71197585 10.08296449 -3.5625 8.625 C-3.48128906 7.81289062 -3.40007812 7.00078125 -3.31640625 6.1640625 C-3 4 -3 4 -2 2 C-1.34 2 -0.68 2 0 2 C0 1.34 0 0.68 0 0 Z " fill="#6A6F85" transform="translate(132,233)"/>
<path d="M0 0 C0.33 0 0.66 0 1 0 C1.09706112 6.11485027 0.77040851 11.93303301 0 18 C-0.33 18 -0.66 18 -1 18 C-1.12375 16.9275 -1.2475 15.855 -1.375 14.75 C-1.89643936 11.62136385 -2.40088254 9.66519576 -4 7 C-2.68 7.33 -1.36 7.66 0 8 C-0.2784375 6.2984375 -0.2784375 6.2984375 -0.5625 4.5625 C-0.706875 3.386875 -0.85125 2.21125 -1 1 C-0.67 0.67 -0.34 0.34 0 0 Z " fill="#1A385D" transform="translate(213,224)"/>
<path d="M0 0 C0 0.99 0 1.98 0 3 C-7.38461538 4.35384615 -7.38461538 4.35384615 -10.5 2.5625 C-10.995 2.046875 -11.49 1.53125 -12 1 C-7.93631321 0.22596442 -4.13574827 -0.0984702 0 0 Z " fill="#041731" transform="translate(112,193)"/>
<path d="M0 0 C2.04219706 1.69179328 2.91793306 2.63727666 3.51171875 5.26171875 C3.56972656 6.06222656 3.62773437 6.86273438 3.6875 7.6875 C3.75324219 8.49574219 3.81898438 9.30398437 3.88671875 10.13671875 C3.92410156 10.75160156 3.96148437 11.36648437 4 12 C4.99 12.33 5.98 12.66 7 13 C5.68 13 4.36 13 3 13 C0.78145293 8.37802694 -0.38281159 5.23175837 0 0 Z " fill="#79533D" transform="translate(141,96)"/>
<path d="M0 0 C0 2.31 0 4.62 0 7 C-0.66 6.34 -1.32 5.68 -2 5 C-2.99 5.99 -3.98 6.98 -5 8 C-5.33 6.68 -5.66 5.36 -6 4 C-1.125 0 -1.125 0 0 0 Z M-7 8 C-6.34 8 -5.68 8 -5 8 C-5 8.66 -5 9.32 -5 10 C-5.66 10 -6.32 10 -7 10 C-7 9.34 -7 8.68 -7 8 Z " fill="#070E1F" transform="translate(111,236)"/>
<path d="M0 0 C3.90381822 3.90381822 3.56244183 5.66179036 4 11 C2.68 10.67 1.36 10.34 0 10 C0 6.7 0 3.4 0 0 Z " fill="#9A9EB7" transform="translate(138,198)"/>
<path d="M0 0 C2.475 0.99 2.475 0.99 5 2 C4.67 2.99 4.34 3.98 4 5 C3.01 5 2.02 5 1 5 C0.34 6.98 -0.32 8.96 -1 11 C-2.60080151 6.99799622 -1.29279692 3.95443764 0 0 Z " fill="#A3AAC1" transform="translate(141,121)"/>
<path d="M0 0 C0 3.63 0 7.26 0 11 C-0.66 10.67 -1.32 10.34 -2 10 C-2.6328125 7.93359375 -2.6328125 7.93359375 -3.125 5.4375 C-3.29257813 4.61121094 -3.46015625 3.78492187 -3.6328125 2.93359375 C-3.75398437 2.29550781 -3.87515625 1.65742187 -4 1 C-1 0 -1 0 0 0 Z " fill="#855E52" transform="translate(137,79)"/>
<path d="M0 0 C0.66 0.66 1.32 1.32 2 2 C-0.97 5.63 -3.94 9.26 -7 13 C-7.66 12.67 -8.32 12.34 -9 12 C-8.27683594 11.07767578 -8.27683594 11.07767578 -7.5390625 10.13671875 C-6.90742187 9.32847656 -6.27578125 8.52023438 -5.625 7.6875 C-4.99851562 6.88699219 -4.37203125 6.08648437 -3.7265625 5.26171875 C-2.42243282 3.55336788 -1.19218183 1.78827274 0 0 Z " fill="#786CFA" transform="translate(39,51)"/>
<path d="M0 0 C0.33 1.32 0.66 2.64 1 4 C0.360625 4.165 -0.27875 4.33 -0.9375 4.5 C-3.16119241 5.781786 -3.16119241 5.781786 -3.48828125 7.9140625 C-3.7275978 9.93575155 -3.86893028 11.96841939 -4 14 C-4.99 14 -5.98 14 -7 14 C-6.71640113 12.5608866 -6.42278601 11.12374482 -6.125 9.6875 C-5.96257812 8.88699219 -5.80015625 8.08648437 -5.6328125 7.26171875 C-5 5 -5 5 -3 2 C-2.01 2 -1.02 2 0 2 C0 1.34 0 0.68 0 0 Z " fill="#505567" transform="translate(131,231)"/>
<path d="M0 0 C1.485 0.99 1.485 0.99 3 2 C3 2.66 3 3.32 3 4 C4.1446875 4.185625 4.1446875 4.185625 5.3125 4.375 C8 5 8 5 11 7 C7.7 6.67 4.4 6.34 1 6 C0.67 4.02 0.34 2.04 0 0 Z " fill="#374B70" transform="translate(167,108)"/>
<path d="M0 0 C0.66 0.66 1.32 1.32 2 2 C1.360625 2.268125 0.72125 2.53625 0.0625 2.8125 C-2.33131686 3.88667752 -2.33131686 3.88667752 -3 7 C-4.32 6.67 -5.64 6.34 -7 6 C-7 5.34 -7 4.68 -7 4 C-5.68 4 -4.36 4 -3 4 C-3 3.01 -3 2.02 -3 1 C-2.01 0.67 -1.02 0.34 0 0 Z " fill="#7E5649" transform="translate(157,94)"/>
<path d="M0 0 C1.4783226 2.95664519 1.06032783 5.74229737 1 9 C-0.98 9 -2.96 9 -5 9 C-4.3566152 7.686298 -3.71021785 6.37407102 -3.0625 5.0625 C-2.70285156 4.33160156 -2.34320313 3.60070312 -1.97265625 2.84765625 C-1 1 -1 1 0 0 Z " fill="#929CB7" transform="translate(165,246)"/>
<path d="M0 0 C0.66 0 1.32 0 2 0 C1.03644647 9.41002278 1.03644647 9.41002278 0 14 C-0.33 14 -0.66 14 -1 14 C-1 10.7 -1 7.4 -1 4 C-1.99 3.67 -2.98 3.34 -4 3 C-2.68 2.67 -1.36 2.34 0 2 C0 1.34 0 0.68 0 0 Z " fill="#1B2E4D" transform="translate(210,242)"/>
<path d="M0 0 C0.99 0 1.98 0 3 0 C3 1.65 3 3.3 3 5 C1.35 5.66 -0.3 6.32 -2 7 C-2 5.68 -2 4.36 -2 3 C-1.34 2.67 -0.68 2.34 0 2 C0 1.34 0 0.68 0 0 Z " fill="#613E2E" transform="translate(160,88)"/>
<path d="M0 0 C3.3 0 6.6 0 10 0 C10 0.99 10 1.98 10 3 C9.01 3.33 8.02 3.66 7 4 C6.67 3.67 6.34 3.34 6 3 C3.67182036 2.63239269 1.3381615 2.29758419 -1 2 C-0.67 1.34 -0.34 0.68 0 0 Z " fill="#9F7866" transform="translate(155,72)"/>
<path d="M0 0 C1.32 0 2.64 0 4 0 C3.67 2.31 3.34 4.62 3 7 C2.01 7.33 1.02 7.66 0 8 C0 5.36 0 2.72 0 0 Z " fill="#0D2E58" transform="translate(95,229)"/>
<path d="M0 0 C2.625 -0.1875 2.625 -0.1875 5 0 C5 0.66 5 1.32 5 2 C4.030625 2.268125 3.06125 2.53625 2.0625 2.8125 C1.051875 3.204375 0.04125 3.59625 -1 4 C-1.33 4.99 -1.66 5.98 -2 7 C-2.66 7 -3.32 7 -4 7 C-2.79618552 4.50638429 -1.54571278 2.31856917 0 0 Z " fill="#0A1831" transform="translate(210,184)"/>
<path d="M0 0 C0.66 0.33 1.32 0.66 2 1 C2.484375 2.92578125 2.484375 2.92578125 2.75 5.3125 C2.84796875 6.09238281 2.9459375 6.87226562 3.046875 7.67578125 C2.99392264 10.30133568 2.32990442 11.76473757 1 14 C0.855625 12.906875 0.71125 11.81375 0.5625 10.6875 C0.11711896 7.06877013 0.11711896 7.06877013 -1 4 C-0.5625 1.8125 -0.5625 1.8125 0 0 Z " fill="#81563F" transform="translate(163,89)"/>
<path d="M0 0 C0.33 0 0.66 0 1 0 C1.33 5.28 1.66 10.56 2 16 C1.34 16 0.68 16 0 16 C-0.33 16.66 -0.66 17.32 -1 18 C-0.505 9.09 -0.505 9.09 0 0 Z " fill="#0F1421" transform="translate(112,251)"/>
<path d="M0 0 C0.99 0.33 1.98 0.66 3 1 C3 4.3 3 7.6 3 11 C2.34 10.67 1.68 10.34 1 10 C0.23597322 6.56187949 0 3.53471921 0 0 Z " fill="#213255" transform="translate(213,199)"/>
<path d="M0 0 C1.32 0.66 2.64 1.32 4 2 C3.01 4.64 2.02 7.28 1 10 C-1.56687367 6.1496895 -0.83288724 4.41430237 0 0 Z " fill="#08284C" transform="translate(100,195)"/>
<path d="M0 0 C2.7710688 2.34591852 3.52059284 4.14776201 4.1875 7.6875 C4.34605469 8.49574219 4.50460938 9.30398437 4.66796875 10.13671875 C4.77753906 10.75160156 4.88710937 11.36648437 5 12 C2.69857565 10.21825212 1.19965609 8.83695835 0.51171875 5.953125 C0.27676898 3.9753389 0.13248542 1.98728128 0 0 Z " fill="#202E49" transform="translate(206,134)"/>
<path d="M0 0 C0.33 0 0.66 0 1 0 C1.2954439 5.02254631 0.98514628 7.89542386 -2 12 C-3.15957207 8.52128379 -2.77456651 7.65780355 -1.5625 4.3125 C-1.13130859 3.10013672 -1.13130859 3.10013672 -0.69140625 1.86328125 C-0.46324219 1.24839844 -0.23507813 0.63351563 0 0 Z " fill="#243049" transform="translate(167,110)"/>
<path d="M0 0 C0.6875 1.625 0.6875 1.625 1 4 C-0.4375 7.25 -0.4375 7.25 -2 10 C-2.33 10 -2.66 10 -3 10 C-2.25 2.25 -2.25 2.25 0 0 Z " fill="#6A4538" transform="translate(185,270)"/>
<path d="M0 0 C1.67110042 2.96178773 2.32682752 5.37071192 2.625 8.75 C2.69976562 9.54921875 2.77453125 10.3484375 2.8515625 11.171875 C2.90054688 11.77515625 2.94953125 12.3784375 3 13 C0 11 0 11 -0.75 9.3125 C-1.09742035 6.09886176 -0.54869792 3.17025463 0 0 Z " fill="#6D7792" transform="translate(162,226)"/>
<path d="M0 0 C1.231394 3.69418201 0.64432764 6.2056261 0 10 C-0.99 10 -1.98 10 -3 10 C-3.36629408 5.72656908 -2.40814077 3.51187196 0 0 Z " fill="#243F61" transform="translate(215,185)"/>
<path d="M0 0 C2.67927341 4.01891012 2.15601248 6.24161923 2 11 C0.68 10.67 -0.64 10.34 -2 10 C-1.34 6.7 -0.68 3.4 0 0 Z " fill="#443434" transform="translate(111,269)"/>
<path d="M0 0 C-0.33 0.99 -0.66 1.98 -1 3 C-5.455 3.495 -5.455 3.495 -10 4 C-4.7826087 0 -4.7826087 0 0 0 Z " fill="#081B39" transform="translate(211,235)"/>
<path d="M0 0 C0.99 0.33 1.98 0.66 3 1 C2.125 7.875 2.125 7.875 1 9 C-0.66617115 9.04063832 -2.33388095 9.042721 -4 9 C-2.68 8.34 -1.36 7.68 0 7 C0 4.69 0 2.38 0 0 Z " fill="#6A4732" transform="translate(160,101)"/>
<path d="M0 0 C2.97 0.495 2.97 0.495 6 1 C5.01 2.485 5.01 2.485 4 4 C1.375 4.1875 1.375 4.1875 -1 4 C-0.67 2.68 -0.34 1.36 0 0 Z " fill="#9E7566" transform="translate(140,84)"/>
<path d="M0 0 C2.4294516 3.6441774 2.16179575 5.71241272 2 10 C1.01 10 0.02 10 -1 10 C-1.66 8.68 -2.32 7.36 -3 6 C-1.68 6.33 -0.36 6.66 1 7 C0.67 4.69 0.34 2.38 0 0 Z " fill="#6C5246" transform="translate(168,66)"/>
<path d="M0 0 C0.66 0 1.32 0 2 0 C2 1.98 2 3.96 2 6 C0.68 6 -0.64 6 -2 6 C-1.125 1.125 -1.125 1.125 0 0 Z " fill="#543426" transform="translate(105,268)"/>
<path d="M0 0 C0.33 0 0.66 0 1 0 C1.66 3.63 2.32 7.26 3 11 C1.68 10.34 0.36 9.68 -1 9 C-0.67 6.03 -0.34 3.06 0 0 Z " fill="#656F89" transform="translate(158,209)"/>
<path d="M0 0 C0.66 0 1.32 0 2 0 C1.88637738 1.4800841 1.75877092 2.95910074 1.625 4.4375 C1.52058594 5.67306641 1.52058594 5.67306641 1.4140625 6.93359375 C1.27742187 7.61550781 1.14078125 8.29742187 1 9 C0.01 9.495 0.01 9.495 -1 10 C-0.67 6.7 -0.34 3.4 0 0 Z " fill="#1D2738" transform="translate(140,114)"/>
<path d="M0 0 C1.45903258 0.30921884 2.91720722 0.62248799 4.375 0.9375 C5.18710938 1.11152344 5.99921875 1.28554687 6.8359375 1.46484375 C9 2 9 2 11 3 C10.67 3.66 10.34 4.32 10 5 C6.33118845 4.29445932 3.29549466 2.72264494 0 1 C0 0.67 0 0.34 0 0 Z " fill="#283F68" transform="translate(178,115)"/>
<path d="M0 0 C0.99 0 1.98 0 3 0 C3.33 1.32 3.66 2.64 4 4 C3.34 4 2.68 4 2 4 C2 4.99 2 5.98 2 7 C1.01 6.67 0.02 6.34 -1 6 C-1 5.34 -1 4.68 -1 4 C-0.34 4 0.32 4 1 4 C0.67 2.68 0.34 1.36 0 0 Z " fill="#9F8462" transform="translate(203,255)"/>
<path d="M0 0 C0.99 0.33 1.98 0.66 3 1 C2.67 3.64 2.34 6.28 2 9 C1.34 8.67 0.68 8.34 0 8 C0 5.36 0 2.72 0 0 Z " fill="#080A12" transform="translate(189,250)"/>
<path d="M0 0 C3.3 0 6.6 0 10 0 C9.01 1.485 9.01 1.485 8 3 C5 3.375 5 3.375 2 3 C1.34 2.01 0.68 1.02 0 0 Z " fill="#0B2C57" transform="translate(199,239)"/>
<path d="M0 0 C0.33 0.66 0.66 1.32 1 2 C0.0625 4.625 0.0625 4.625 -1 7 C-2.32 6.34 -3.64 5.68 -5 5 C-4.01 4.67 -3.02 4.34 -2 4 C-2 3.01 -2 2.02 -2 1 C-1.34 0.67 -0.68 0.34 0 0 Z " fill="#565969" transform="translate(134,214)"/>
<path d="M0 0 C0.66 0.33 1.32 0.66 2 1 C2 2.32 2 3.64 2 5 C0.02 5.33 -1.96 5.66 -4 6 C-2.68 4.02 -1.36 2.04 0 0 Z " fill="#040A19" transform="translate(114,180)"/>
<path d="M0 0 C0.99 0.33 1.98 0.66 3 1 C2.67 4.63 2.34 8.26 2 12 C1.67 12 1.34 12 1 12 C0.67 8.04 0.34 4.08 0 0 Z " fill="#04050C" transform="translate(190,171)"/>
<path d="M0 0 C0.33 0 0.66 0 1 0 C1.042721 1.66611905 1.04063832 3.33382885 1 5 C0 6 0 6 -3.5625 6.0625 C-4.696875 6.041875 -5.83125 6.02125 -7 6 C-6.34 5.34 -5.68 4.68 -5 4 C-3.68 4 -2.36 4 -1 4 C-0.67 2.68 -0.34 1.36 0 0 Z " fill="#76523F" transform="translate(164,77)"/>
<path d="M0 0 C0 0.66 0 1.32 0 2 C-2.31 2.33 -4.62 2.66 -7 3 C-7 2.01 -7 1.02 -7 0 C-4.3333581 -1.33332095 -2.83319697 -0.67102033 0 0 Z " fill="#3D3128" transform="translate(147,76)"/>
<path d="M0 0 C-1.50223584 4.20626034 -4.28550034 5.73900021 -8 8 C-6.48291727 4.46014029 -4.24676932 0 0 0 Z " fill="#15B9E9" transform="translate(254,262)"/>
<path d="M0 0 C0.33 0 0.66 0 1 0 C1.33 3.3 1.66 6.6 2 10 C1.34 10 0.68 10 0 10 C-0.66 9.34 -1.32 8.68 -2 8 C-1.6875 6.125 -1.6875 6.125 -1 4 C-0.814375 3.2575 -0.62875 2.515 -0.4375 1.75 C-0.293125 1.1725 -0.14875 0.595 0 0 Z " fill="#9EA6BF" transform="translate(155,211)"/>
<path d="M0 0 C0.94875 0.350625 1.8975 0.70125 2.875 1.0625 C-0.35291555 3.2144437 -1.40900809 3.26336443 -5.125 3.0625 C-5.125 2.0725 -5.125 1.0825 -5.125 0.0625 C-3.125 -0.9375 -3.125 -0.9375 0 0 Z " fill="#060F24" transform="translate(108.125,196.9375)"/>
<path d="M0 0 C1.32 0.33 2.64 0.66 4 1 C4 2.65 4 4.3 4 6 C2.68 5.67 1.36 5.34 0 5 C0 3.35 0 1.7 0 0 Z " fill="#16325C" transform="translate(199,125)"/>
<path d="M0 0 C1.4540625 0.0309375 1.4540625 0.0309375 2.9375 0.0625 C2.2775 0.7225 1.6175 1.3825 0.9375 2.0625 C-0.0525 2.0625 -1.0425 2.0625 -2.0625 2.0625 C-2.3925 3.0525 -2.7225 4.0425 -3.0625 5.0625 C-3.7225 4.7325 -4.3825 4.4025 -5.0625 4.0625 C-3.73373288 0.07619863 -3.73373288 0.07619863 0 0 Z " fill="#936C5D" transform="translate(140.0625,87.9375)"/>
<path d="M0 0 C0.99 0 1.98 0 3 0 C4 2 4 2 3.0625 5.125 C2.711875 6.07375 2.36125 7.0225 2 8 C-0.1519437 4.77208445 -0.20086443 3.71599191 0 0 Z " fill="#59463D" transform="translate(134,72)"/>
<path d="M0 0 C2.64 1.65 5.28 3.3 8 5 C5 6 5 6 2.3125 4.75 C1.549375 4.1725 0.78625 3.595 0 3 C0 2.01 0 1.02 0 0 Z " fill="#39A1EB" transform="translate(67,273)"/>
<path d="M0 0 C0.66 0 1.32 0 2 0 C1.67 1.65 1.34 3.3 1 5 C0.01 5.33 -0.98 5.66 -2 6 C-1.125 1.125 -1.125 1.125 0 0 Z " fill="#05070D" transform="translate(118,268)"/>
<path d="M0 0 C2.31 0.33 4.62 0.66 7 1 C7 1.66 7 2.32 7 3 C4.36 2.67 1.72 2.34 -1 2 C-0.67 1.34 -0.34 0.68 0 0 Z " fill="#071A39" transform="translate(201,228)"/>
<path d="M0 0 C1.98 0.66 3.96 1.32 6 2 C6 2.33 6 2.66 6 3 C4.35 3 2.7 3 1 3 C0.67 4.32 0.34 5.64 0 7 C-0.38133299 5.0085944 -0.71325582 3.00720923 -1 1 C-0.67 0.67 -0.34 0.34 0 0 Z " fill="#707B97" transform="translate(129,221)"/>
<path d="M0 0 C0.33 0 0.66 0 1 0 C1 1.65 1 3.3 1 5 C-0.98 5.99 -0.98 5.99 -3 7 C-2.67 5.35 -2.34 3.7 -2 2 C-1.34 2 -0.68 2 0 2 C0 1.34 0 0.68 0 0 Z " fill="#081935" transform="translate(203,160)"/>
</svg>
